<svg width="60" height="60" viewBox="0 0 60 60" fill="none" xmlns="http://www.w3.org/2000/svg">
<rect width="60" height="60" rx="30" fill="white"/>
<path d="M23.304 44.829C23.5467 44.9553 23.8191 45.013 24.0921 44.9961C24.3651 44.9792 24.6283 44.8882 24.8535 44.733L44.3535 31.233C44.5528 31.095 44.7156 30.9107 44.8281 30.696C44.9405 30.4812 44.9993 30.2424 44.9993 30C44.9993 29.7576 44.9405 29.5188 44.8281 29.3041C44.7156 29.0894 44.5528 28.9051 44.3535 28.767L24.8535 15.267C24.6287 15.1102 24.3652 15.0181 24.0917 15.0008C23.8181 14.9835 23.5451 15.0416 23.3023 15.1688C23.0595 15.296 22.8563 15.4874 22.7148 15.7221C22.5734 15.9569 22.4991 16.226 22.5 16.5V43.5C22.5 43.7738 22.5749 44.0424 22.7166 44.2767C22.8583 44.511 23.0615 44.702 23.304 44.829ZM25.5 19.3635L40.8645 30L25.5 40.6365V19.3635Z" fill="#404545"/>
</svg>
