<svg width="60" height="60" viewBox="0 0 60 60" fill="none" xmlns="http://www.w3.org/2000/svg">
<rect x="60" y="60" width="60" height="60" rx="30" transform="rotate(-180 60 60)" fill="white"/>
<path d="M36.696 15.171C36.4533 15.0447 36.1809 14.987 35.9079 15.0039C35.6349 15.0208 35.3717 15.1118 35.1465 15.267L15.6465 28.767C15.4472 28.905 15.2844 29.0893 15.1719 29.304C15.0595 29.5188 15.0007 29.7576 15.0007 30C15.0007 30.2424 15.0595 30.4812 15.1719 30.6959C15.2844 30.9106 15.4472 31.0949 15.6465 31.233L35.1465 44.733C35.3713 44.8898 35.6348 44.9819 35.9083 44.9992C36.1819 45.0165 36.4549 44.9584 36.6977 44.8312C36.9405 44.704 37.1437 44.5126 37.2852 44.2779C37.4266 44.0431 37.5009 43.774 37.5 43.5V16.5C37.5 16.2262 37.4251 15.9576 37.2834 15.7233C37.1417 15.489 36.9385 15.298 36.696 15.171ZM34.5 40.6365L19.1355 30L34.5 19.3635V40.6365Z" fill="#404545"/>
</svg>
