<svg width="1034" height="1572" viewBox="0 0 1034 1572" fill="none" xmlns="http://www.w3.org/2000/svg">
<g style="mix-blend-mode:color-burn">
<path opacity="0.96" d="M61.7307 224.451L256.126 336.676L61.7307 448.901L61.7307 224.451Z" fill="#6DBF85"/>
<path opacity="0.51" d="M256.126 1010.03L450.491 1122.25L256.126 1234.48V1010.03Z" fill="#6DBF85"/>
<path opacity="0.08" d="M256.126 1234.48L450.491 1346.7L256.126 1458.93V1234.48Z" fill="#6DBF85"/>
<path opacity="0.91" d="M450.491 1346.7L644.857 1458.93L450.491 1571.15V1346.7Z" fill="#6DBF85"/>
<path opacity="0.28" d="M61.7306 448.901L-132.635 336.676L61.7306 224.451V448.901Z" fill="#6DBF85"/>
<path opacity="0.32" d="M450.491 224.451L644.857 336.676L450.491 448.901V224.451Z" fill="#6DBF85"/>
<path opacity="0.98" d="M450.491 1571.15L256.126 1458.93L450.491 1346.7V1571.15Z" fill="#6DBF85"/>
<path opacity="0.22" d="M61.7307 1122.25L256.126 1234.48L61.7307 1346.7L61.7307 1122.25Z" fill="#6DBF85"/>
<path opacity="0.28" d="M450.491 0L644.857 112.225L450.491 224.451V0Z" fill="#6DBF85"/>
<path opacity="0.98" d="M644.857 1010.03L450.491 897.803L644.857 785.577V1010.03Z" fill="#6DBF85"/>
<path opacity="0.34" d="M-132.635 785.577L61.7306 897.803L-132.635 1010.03V785.577Z" fill="#6DBF85"/>
<path opacity="0.32" d="M450.491 673.352L256.126 561.127L450.491 448.901V673.352Z" fill="#6DBF85"/>
<path opacity="0.56" d="M644.857 561.127L450.491 448.901L644.857 336.676V561.127Z" fill="#6DBF85"/>
<path opacity="0.91" d="M61.7306 1571.15L-132.635 1458.93L61.7306 1346.7V1571.15Z" fill="#6DBF85"/>
<path opacity="0.03" d="M839.222 448.901L1033.59 561.127L839.222 673.352V448.901Z" fill="#6DBF85"/>
<path opacity="0.19" d="M256.126 112.225L450.491 224.451L256.126 336.676V112.225Z" fill="#6DBF85"/>
<path opacity="0.41" d="M256.126 1234.48L61.7307 1122.25L256.126 1010.03V1234.48Z" fill="#6DBF85"/>
<path opacity="0.03" d="M450.491 1346.7L256.126 1234.48L450.491 1122.25V1346.7Z" fill="#6DBF85"/>
<path opacity="0.43" d="M-132.635 1010.03L61.7306 1122.25L-132.635 1234.48V1010.03Z" fill="#6DBF85"/>
<path opacity="0.09" d="M256.126 785.577L61.7307 673.352L256.126 561.127V785.577Z" fill="#6DBF85"/>
<path opacity="0.26" d="M450.491 897.803L644.857 1010.03L450.491 1122.25V897.803Z" fill="#6DBF85"/>
<path opacity="0.87" d="M450.491 897.802L256.126 785.577L450.491 673.352V897.802Z" fill="#6DBF85"/>
<path opacity="0.18" d="M644.857 336.676L839.222 448.901L644.857 561.127V336.676Z" fill="#6DBF85"/>
<path opacity="0.17" d="M450.491 224.451L256.126 112.225L450.491 0V224.451Z" fill="#6DBF85"/>
<path opacity="0.01" d="M61.7307 897.803L256.126 1010.03L61.7307 1122.25L61.7307 897.803Z" fill="#6DBF85"/>
<path opacity="0.84" d="M61.7307 0L256.126 112.225L61.7307 224.451L61.7307 0Z" fill="#6DBF85"/>
<path opacity="0.6" d="M61.7306 897.802L-132.635 785.577L61.7306 673.352V897.802Z" fill="#6DBF85"/>
<path opacity="0.77" d="M644.857 785.577L450.491 673.352L644.857 561.127V785.577Z" fill="#6DBF85"/>
<path opacity="0.08" d="M256.126 561.127L61.7307 448.901L256.126 336.676V561.127Z" fill="#6DBF85"/>
<path opacity="0.76" d="M-132.635 112.225L61.7306 224.451L-132.635 336.676V112.225Z" fill="#6DBF85"/>
<path opacity="0.61" d="M644.857 336.676L450.491 224.451L644.857 112.225V336.676Z" fill="#6DBF85"/>
<path opacity="0.43" d="M644.857 1234.48L839.222 1346.7L644.857 1458.93V1234.48Z" fill="#6DBF85"/>
<path opacity="0.15" d="M839.222 1346.7L644.857 1234.48L839.222 1122.25V1346.7Z" fill="#6DBF85"/>
<path opacity="0.34" d="M450.491 1122.25L256.126 1010.03L450.491 897.803V1122.25Z" fill="#6DBF85"/>
<path opacity="0.62" d="M450.491 448.901L644.857 561.127L450.491 673.352V448.901Z" fill="#6DBF85"/>
<path opacity="0.51" d="M256.126 1458.93L61.7307 1346.7L256.126 1234.48V1458.93Z" fill="#6DBF85"/>
<path opacity="0.53" d="M-132.635 561.127L61.7306 673.352L-132.635 785.577V561.127Z" fill="#6DBF85"/>
<path opacity="0.64" d="M256.126 785.577L450.491 897.803L256.126 1010.03V785.577Z" fill="#6DBF85"/>
<path opacity="0.87" d="M644.857 112.225L839.222 224.451L644.857 336.676V112.225Z" fill="#6DBF85"/>
<path opacity="0.16" d="M-132.635 336.676L61.7306 448.901L-132.635 561.127V336.676Z" fill="#6DBF85"/>
<path opacity="0.23" d="M644.857 1234.48L450.491 1122.25L644.857 1010.03V1234.48Z" fill="#6DBF85"/>
<path opacity="0.55" d="M256.126 336.676L61.7307 224.451L256.126 112.225V336.676Z" fill="#6DBF85"/>
<path opacity="0.42" d="M61.7307 673.352L256.126 785.577L61.7307 897.802L61.7307 673.352Z" fill="#6DBF85"/>
<path opacity="0.94" d="M61.7307 448.901L256.126 561.127L61.7307 673.352L61.7307 448.901Z" fill="#6DBF85"/>
<path opacity="0.7" d="M644.857 1010.03L839.222 1122.25L644.857 1234.48V1010.03Z" fill="#6DBF85"/>
<path opacity="0.5" d="M61.7306 1346.7L-132.635 1234.48L61.7306 1122.25V1346.7Z" fill="#6DBF85"/>
<path opacity="0.39" d="M644.857 561.127L839.222 673.352L644.857 785.577V561.127Z" fill="#6DBF85"/>
<path opacity="0.64" d="M839.222 448.901L644.857 336.676L839.222 224.451V448.901Z" fill="#6DBF85"/>
<path opacity="0.92" d="M61.7306 1122.25L-132.635 1010.03L61.7306 897.803V1122.25Z" fill="#6DBF85"/>
<path opacity="0.62" d="M-132.635 1234.48L61.7306 1346.7L-132.635 1458.93V1234.48Z" fill="#6DBF85"/>
<path opacity="0.05" d="M61.7306 673.352L-132.635 561.127L61.7306 448.901V673.352Z" fill="#6DBF85"/>
<path opacity="0.69" d="M450.491 1122.25L644.857 1234.48L450.491 1346.7V1122.25Z" fill="#6DBF85"/>
<path opacity="0.35" d="M256.126 1010.03L61.7307 897.803L256.126 785.577V1010.03Z" fill="#6DBF85"/>
<path opacity="0.12" d="M256.126 336.676L450.491 448.901L256.126 561.127V336.676Z" fill="#6DBF85"/>
<path opacity="0.52" d="M644.857 1458.93L450.491 1346.7L644.857 1234.48V1458.93Z" fill="#6DBF85"/>
<path opacity="0.42" d="M644.857 785.577L839.222 897.803L644.857 1010.03V785.577Z" fill="#6DBF85"/>
<path opacity="0.77" d="M256.126 561.127L450.491 673.352L256.126 785.577V561.127Z" fill="#6DBF85"/>
<path opacity="0.74" d="M450.491 448.901L256.126 336.676L450.491 224.451V448.901Z" fill="#6DBF85"/>
<path opacity="0.73" d="M61.7307 1346.7L256.126 1458.93L61.7307 1571.15L61.7307 1346.7Z" fill="#6DBF85"/>
<path opacity="0.71" d="M61.7306 224.451L-132.635 112.225L61.7306 0V224.451Z" fill="#6DBF85"/>
<path opacity="0.02" d="M450.491 673.352L644.857 785.577L450.491 897.802V673.352Z" fill="#6DBF85"/>
<path opacity="0.12" d="M-132.635 1346.7L61.7306 1458.93L-132.635 1571.15V1346.7Z" fill="#6DBF85"/>
<path opacity="0.39" d="M839.222 1234.48L1033.59 1346.7L839.222 1458.93V1234.48Z" fill="#6DBF85"/>
<path opacity="0.88" d="M644.857 1346.7L450.491 1234.48L644.857 1122.25V1346.7Z" fill="#6DBF85"/>
<path opacity="0.88" d="M450.491 561.127L256.096 448.901L450.491 336.676V561.127Z" fill="#6DBF85"/>
<path opacity="0.76" d="M450.491 336.676L256.096 224.451L450.491 112.225V336.676Z" fill="#6DBF85"/>
<path opacity="0.45" d="M256.096 224.451L61.7307 112.225L256.096 0V224.451Z" fill="#6DBF85"/>
<path opacity="0.51" d="M644.857 1122.25L839.222 1234.48L644.857 1346.7V1122.25Z" fill="#6DBF85"/>
<path opacity="0.18" d="M256.096 1346.7L61.7307 1234.48L256.096 1122.25V1346.7Z" fill="#6DBF85"/>
<path opacity="0.64" d="M256.096 0L450.491 112.225L256.096 224.451V0Z" fill="#6DBF85"/>
<path opacity="0.17" d="M644.857 448.901L450.491 336.676L644.857 224.451V448.901Z" fill="#6DBF85"/>
<path opacity="0.26" d="M256.096 1571.15L61.7307 1458.93L256.096 1346.7V1571.15Z" fill="#6DBF85"/>
<path opacity="0.15" d="M61.7307 561.127L256.096 673.352L61.7307 785.577L61.7307 561.127Z" fill="#6DBF85"/>
<path opacity="0.11" d="M256.096 897.803L450.491 1010.03L256.096 1122.25V897.803Z" fill="#6DBF85"/>
<path opacity="0.35" d="M61.7307 1010.03L256.096 1122.25L61.7307 1234.48L61.7307 1010.03Z" fill="#6DBF85"/>
<path opacity="0.77" d="M-132.635 0L61.7306 112.225L-132.635 224.451V0Z" fill="#6DBF85"/>
<path opacity="0.69" d="M644.857 0L839.222 112.225L644.857 224.451V0Z" fill="#6DBF85"/>
<path opacity="0.66" d="M450.491 1458.93L256.096 1346.7L450.491 1234.48V1458.93Z" fill="#6DBF85"/>
<path opacity="0.9" d="M450.491 336.676L644.857 448.901L450.491 561.127V336.676Z" fill="#6DBF85"/>
<path opacity="0.31" d="M-132.635 897.803L61.7306 1010.03L-132.635 1122.25V897.803Z" fill="#6DBF85"/>
<path opacity="0.41" d="M256.096 224.451L450.491 336.676L256.096 448.901V224.451Z" fill="#6DBF85"/>
<path opacity="0.61" d="M839.222 561.127L644.857 448.901L839.222 336.676V561.127Z" fill="#6DBF85"/>
<path opacity="0.82" d="M450.491 785.577L644.857 897.803L450.491 1010.03V785.577Z" fill="#6DBF85"/>
<path opacity="0.19" d="M839.222 336.676L1033.59 448.901L839.222 561.127V336.676Z" fill="#6DBF85"/>
<path opacity="0.77" d="M256.096 673.352L61.7307 561.127L256.096 448.901V673.352Z" fill="#6DBF85"/>
<path opacity="0.79" d="M256.096 673.352L450.491 785.577L256.096 897.802V673.352Z" fill="#6DBF85"/>
<path opacity="0.48" d="M61.7306 1234.48L-132.635 1122.25L61.7306 1010.03V1234.48Z" fill="#6DBF85"/>
<path opacity="0.23" d="M256.096 1346.7L450.491 1458.93L256.096 1571.15V1346.7Z" fill="#6DBF85"/>
<path opacity="0.72" d="M644.857 673.352L450.491 561.127L644.857 448.901V673.352Z" fill="#6DBF85"/>
<path opacity="0.08" d="M644.857 1571.15L450.491 1458.93L644.857 1346.7V1571.15Z" fill="#6DBF85"/>
<path opacity="0.79" d="M644.857 673.352L839.222 785.577L644.857 897.802V673.352Z" fill="#6DBF85"/>
<path opacity="0.87" d="M61.7307 785.577L256.096 897.803L61.7307 1010.03L61.7307 785.577Z" fill="#6DBF85"/>
<path opacity="0.06" d="M450.491 1010.03L644.857 1122.25L450.491 1234.48V1010.03Z" fill="#6DBF85"/>
<path opacity="0.03" d="M839.222 1458.93L644.857 1346.7L839.222 1234.48V1458.93Z" fill="#6DBF85"/>
<path opacity="0.1" d="M61.7307 1234.48L256.096 1346.7L61.7307 1458.93L61.7307 1234.48Z" fill="#6DBF85"/>
<path opacity="0.59" d="M61.7306 336.676L-132.635 224.451L61.7306 112.225V336.676Z" fill="#6DBF85"/>
<path opacity="0.8" d="M-132.635 224.451L61.7306 336.676L-132.635 448.901V224.451Z" fill="#6DBF85"/>
<path opacity="0.22" d="M256.096 448.901L450.491 561.127L256.096 673.352V448.901Z" fill="#6DBF85"/>
<path opacity="0.57" d="M256.096 1122.25L61.7307 1010.03L256.096 897.803V1122.25Z" fill="#6DBF85"/>
<path opacity="0.73" d="M450.491 112.225L644.857 224.451L450.491 336.676V112.225Z" fill="#6DBF85"/>
<path opacity="0.03" d="M450.491 785.577L256.096 673.352L450.491 561.127V785.577Z" fill="#6DBF85"/>
<path opacity="0.6" d="M839.222 112.225L1033.59 224.451L839.222 336.676V112.225Z" fill="#6DBF85"/>
<path opacity="0.53" d="M61.7306 1458.93L-132.635 1346.7L61.7306 1234.48V1458.93Z" fill="#6DBF85"/>
<path opacity="0.88" d="M61.7307 336.676L256.096 448.901L61.7307 561.127L61.7307 336.676Z" fill="#6DBF85"/>
<path opacity="0.99" d="M450.491 1234.48L644.857 1346.7L450.491 1458.93V1234.48Z" fill="#6DBF85"/>
<path opacity="0.37" d="M644.857 897.802L450.491 785.577L644.857 673.352V897.802Z" fill="#6DBF85"/>
<path opacity="0.71" d="M644.857 1122.25L450.491 1010.03L644.857 897.803V1122.25Z" fill="#6DBF85"/>
<path opacity="0.69" d="M61.7306 561.127L-132.635 448.901L61.7306 336.676V561.127Z" fill="#6DBF85"/>
<path opacity="0.33" d="M644.857 224.451L839.222 336.676L644.857 448.901V224.451Z" fill="#6DBF85"/>
<path opacity="0.97" d="M839.222 1010.03L1033.59 1122.25L839.222 1234.48V1010.03Z" fill="#6DBF85"/>
<path opacity="0.63" d="M61.7306 1010.03L-132.635 897.803L61.7306 785.577V1010.03Z" fill="#6DBF85"/>
<path opacity="0.3" d="M-132.635 1122.25L61.7306 1234.48L-132.635 1346.7V1122.25Z" fill="#6DBF85"/>
<path opacity="0.25" d="M644.857 448.901L839.222 561.127L644.857 673.352V448.901Z" fill="#6DBF85"/>
<path opacity="0.95" d="M644.857 897.803L839.222 1010.03L644.857 1122.25V897.803Z" fill="#6DBF85"/>
<path opacity="0.19" d="M256.096 448.901L61.7307 336.676L256.096 224.451V448.901Z" fill="#6DBF85"/>
<path opacity="0.85" d="M-132.635 448.901L61.7306 561.127L-132.635 673.352V448.901Z" fill="#6DBF85"/>
<path opacity="0.45" d="M450.491 561.127L644.857 673.352L450.491 785.577V561.127Z" fill="#6DBF85"/>
<path opacity="0.62" d="M450.491 1234.48L256.096 1122.25L450.491 1010.03V1234.48Z" fill="#6DBF85"/>
<path opacity="0.1" d="M61.7306 785.577L-132.635 673.352L61.7306 561.127V785.577Z" fill="#6DBF85"/>
<path opacity="0.11" d="M450.491 1010.03L256.096 897.803L450.491 785.577V1010.03Z" fill="#6DBF85"/>
<path opacity="0.52" d="M256.096 1122.25L450.491 1234.48L256.096 1346.7V1122.25Z" fill="#6DBF85"/>
<path opacity="0.06" d="M644.857 224.451L450.491 112.225L644.857 0V224.451Z" fill="#6DBF85"/>
<path opacity="0.85" d="M644.857 1346.7L839.222 1458.93L644.857 1571.15V1346.7Z" fill="#6DBF85"/>
<path opacity="0.62" d="M-132.635 673.352L61.7306 785.577L-132.635 897.802V673.352Z" fill="#6DBF85"/>
<path opacity="0.65" d="M256.096 897.802L61.7307 785.577L256.096 673.352V897.802Z" fill="#6DBF85"/>
</g>
</svg>
