<svg width="25" height="40" viewBox="0 0 25 40" fill="none" xmlns="http://www.w3.org/2000/svg">
<mask id="path-1-inside-1_10_107" fill="#ffffff">
<path d="M20 2.5C20.663 2.5 21.2989 2.76339 21.7678 3.23223C22.2366 3.70107 22.5 4.33696 22.5 5V35C22.5 35.663 22.2366 36.2989 21.7678 36.7678C21.2989 37.2366 20.663 37.5 20 37.5H5C4.33696 37.5 3.70107 37.2366 3.23223 36.7678C2.76339 36.2989 2.5 35.663 2.5 35V5C2.5 4.33696 2.76339 3.70107 3.23223 3.23223C3.70107 2.76339 4.33696 2.5 5 2.5H20ZM5 0C3.67392 0 2.40215 0.526784 1.46447 1.46447C0.526784 2.40215 0 3.67392 0 5V35C0 36.3261 0.526784 37.5979 1.46447 38.5355C2.40215 39.4732 3.67392 40 5 40H20C21.3261 40 22.5979 39.4732 23.5355 38.5355C24.4732 37.5979 25 36.3261 25 35V5C25 3.67392 24.4732 2.40215 23.5355 1.46447C22.5979 0.526784 21.3261 0 20 0L5 0Z"/>
</mask>
<path d="M20 2.5C20.663 2.5 21.2989 2.76339 21.7678 3.23223C22.2366 3.70107 22.5 4.33696 22.5 5V35C22.5 35.663 22.2366 36.2989 21.7678 36.7678C21.2989 37.2366 20.663 37.5 20 37.5H5C4.33696 37.5 3.70107 37.2366 3.23223 36.7678C2.76339 36.2989 2.5 35.663 2.5 35V5C2.5 4.33696 2.76339 3.70107 3.23223 3.23223C3.70107 2.76339 4.33696 2.5 5 2.5H20ZM5 0C3.67392 0 2.40215 0.526784 1.46447 1.46447C0.526784 2.40215 0 3.67392 0 5V35C0 36.3261 0.526784 37.5979 1.46447 38.5355C2.40215 39.4732 3.67392 40 5 40H20C21.3261 40 22.5979 39.4732 23.5355 38.5355C24.4732 37.5979 25 36.3261 25 35V5C25 3.67392 24.4732 2.40215 23.5355 1.46447C22.5979 0.526784 21.3261 0 20 0L5 0Z" fill="#ffffff"/>
<path d="M5 2.5V-0.5V2.5ZM5 0V-3V0ZM0 5H-3H0ZM0 35H-3H0ZM20 5.5C19.8674 5.5 19.7402 5.44732 19.6464 5.35355L23.8891 1.11091C22.8576 0.0794627 21.4587 -0.5 20 -0.5V5.5ZM19.6464 5.35355C19.5527 5.25979 19.5 5.13261 19.5 5H25.5C25.5 3.54131 24.9205 2.14236 23.8891 1.11091L19.6464 5.35355ZM19.5 5V35H25.5V5H19.5ZM19.5 35C19.5 34.8674 19.5527 34.7402 19.6464 34.6464L23.8891 38.8891C24.9205 37.8576 25.5 36.4587 25.5 35H19.5ZM19.6464 34.6464C19.7402 34.5527 19.8674 34.5 20 34.5V40.5C21.4587 40.5 22.8576 39.9205 23.8891 38.8891L19.6464 34.6464ZM20 34.5H5V40.5H20V34.5ZM5 34.5C5.13261 34.5 5.25979 34.5527 5.35355 34.6464L1.11091 38.8891C2.14236 39.9205 3.54131 40.5 5 40.5V34.5ZM5.35355 34.6464C5.44732 34.7402 5.5 34.8674 5.5 35H-0.5C-0.5 36.4587 0.0794646 37.8576 1.11091 38.8891L5.35355 34.6464ZM5.5 35V5H-0.5V35H5.5ZM5.5 5C5.5 5.13261 5.44732 5.25979 5.35355 5.35355L1.11091 1.11091C0.0794641 2.14236 -0.5 3.54131 -0.5 5H5.5ZM5.35355 5.35355C5.25979 5.44732 5.13261 5.5 5 5.5V-0.5C3.54131 -0.5 2.14236 0.0794627 1.11091 1.11091L5.35355 5.35355ZM5 5.5H20V-0.5H5V5.5ZM5 -3C2.87827 -3 0.843437 -2.15715 -0.656855 -0.656854L3.58579 3.58579C3.96086 3.21071 4.46957 3 5 3V-3ZM-0.656855 -0.656854C-2.15715 0.843437 -3 2.87827 -3 5H3C3 4.46957 3.21071 3.96086 3.58579 3.58579L-0.656855 -0.656854ZM-3 5V35H3V5H-3ZM-3 35C-3 37.1217 -2.15715 39.1566 -0.656855 40.6569L3.58579 36.4142C3.21071 36.0391 3 35.5304 3 35H-3ZM-0.656855 40.6569C0.843436 42.1571 2.87827 43 5 43V37C4.46957 37 3.96086 36.7893 3.58579 36.4142L-0.656855 40.6569ZM5 43H20V37H5V43ZM20 43C22.1217 43 24.1566 42.1571 25.6569 40.6569L21.4142 36.4142C21.0391 36.7893 20.5304 37 20 37V43ZM25.6569 40.6569C27.1571 39.1566 28 37.1217 28 35H22C22 35.5304 21.7893 36.0391 21.4142 36.4142L25.6569 40.6569ZM28 35V5H22V35H28ZM28 5C28 2.87827 27.1571 0.843436 25.6569 -0.656854L21.4142 3.58579C21.7893 3.96086 22 4.46957 22 5H28ZM25.6569 -0.656854C24.1566 -2.15714 22.1217 -3 20 -3V3C20.5304 3 21.0391 3.21071 21.4142 3.58579L25.6569 -0.656854ZM20 -3H5V3H20V-3Z" fill="#ffffff" mask="url(#path-1-inside-1_10_107)"/>
<path d="M13.2071 33.2071C13.0196 33.3946 12.7652 33.5 12.5 33.5C12.2348 33.5 11.9804 33.3946 11.7929 33.2071C11.6054 33.0196 11.5 32.7652 11.5 32.5C11.5 32.2348 11.6054 31.9804 11.7929 31.7929C11.9804 31.6054 12.2348 31.5 12.5 31.5C12.7652 31.5 13.0196 31.6054 13.2071 31.7929C13.3946 31.9804 13.5 32.2348 13.5 32.5C13.5 32.7652 13.3946 33.0196 13.2071 33.2071L14.2678 34.2678L13.2071 33.2071Z" fill="#ffffff" stroke="#ffffff" stroke-width="3"/>
</svg>
