<svg width="60" height="60" viewBox="0 0 60 60" fill="none" xmlns="http://www.w3.org/2000/svg">
<path d="M30 5C25.0555 5 20.222 6.46622 16.1108 9.21326C11.9995 11.9603 8.79521 15.8648 6.90302 20.4329C5.01083 25.0011 4.51575 30.0277 5.48038 34.8773C6.44501 39.7268 8.82603 44.1814 12.3223 47.6777C15.8187 51.174 20.2732 53.555 25.1228 54.5196C29.9723 55.4843 34.9989 54.9892 39.5671 53.097C44.1353 51.2048 48.0397 48.0005 50.7867 43.8893C53.5338 39.778 55 34.9445 55 30C55 26.717 54.3534 23.4661 53.097 20.4329C51.8406 17.3998 49.9991 14.6438 47.6777 12.3223C45.3562 10.0009 42.6002 8.15938 39.5671 6.90301C36.534 5.64664 33.2831 5 30 5V5ZM30 50C26.0444 50 22.1776 48.827 18.8886 46.6294C15.5996 44.4318 13.0362 41.3082 11.5224 37.6537C10.0087 33.9991 9.6126 29.9778 10.3843 26.0982C11.156 22.2186 13.0608 18.6549 15.8579 15.8579C18.6549 13.0608 22.2186 11.156 26.0982 10.3843C29.9778 9.61259 33.9992 10.0087 37.6537 11.5224C41.3082 13.0362 44.4318 15.5996 46.6294 18.8886C48.827 22.1776 50 26.0444 50 30C50 35.3043 47.8929 40.3914 44.1421 44.1421C40.3914 47.8929 35.3043 50 30 50V50Z" fill="white"/>
<path d="M36.775 23.2251C36.5426 22.9908 36.2661 22.8048 35.9614 22.6779C35.6568 22.5509 35.33 22.4856 35 22.4856C34.6699 22.4856 34.3432 22.5509 34.0385 22.6779C33.7339 22.8048 33.4574 22.9908 33.225 23.2251L30 26.4751L26.775 23.2251C26.3042 22.7543 25.6657 22.4899 25 22.4899C24.3342 22.4899 23.6957 22.7543 23.225 23.2251C22.7542 23.6959 22.4897 24.3343 22.4897 25.0001C22.4897 25.6658 22.7542 26.3043 23.225 26.7751L26.475 30.0001L23.225 33.2251C22.9906 33.4575 22.8047 33.734 22.6777 34.0386C22.5508 34.3433 22.4855 34.6701 22.4855 35.0001C22.4855 35.3301 22.5508 35.6569 22.6777 35.9615C22.8047 36.2662 22.9906 36.5427 23.225 36.7751C23.4574 37.0094 23.7339 37.1954 24.0385 37.3223C24.3432 37.4492 24.6699 37.5146 25 37.5146C25.33 37.5146 25.6568 37.4492 25.9614 37.3223C26.2661 37.1954 26.5426 37.0094 26.775 36.7751L30 33.5251L33.225 36.7751C33.4574 37.0094 33.7339 37.1954 34.0385 37.3223C34.3432 37.4492 34.6699 37.5146 35 37.5146C35.33 37.5146 35.6568 37.4492 35.9614 37.3223C36.2661 37.1954 36.5426 37.0094 36.775 36.7751C37.0093 36.5427 37.1953 36.2662 37.3222 35.9615C37.4491 35.6569 37.5145 35.3301 37.5145 35.0001C37.5145 34.6701 37.4491 34.3433 37.3222 34.0386C37.1953 33.734 37.0093 33.4575 36.775 33.2251L33.525 30.0001L36.775 26.7751C37.0093 26.5427 37.1953 26.2662 37.3222 25.9615C37.4491 25.6569 37.5145 25.3301 37.5145 25.0001C37.5145 24.6701 37.4491 24.3433 37.3222 24.0386C37.1953 23.734 37.0093 23.4575 36.775 23.2251V23.2251Z" fill="white"/>
</svg>
