<svg width="72" height="72" viewBox="0 0 72 72" fill="none" xmlns="http://www.w3.org/2000/svg">
<path d="M65.0448 44.4797L55.9964 38.5594L59.4803 32.1725C60.3205 30.5777 60.7608 28.8026 60.7631 27V16.875C60.7701 14.0281 59.9455 11.2411 58.3907 8.8562C56.8358 6.47135 54.6183 4.59247 52.0106 3.45029C49.4028 2.30811 46.5182 1.95234 43.7111 2.42668C40.9039 2.90102 38.2964 4.18482 36.2087 6.12043L39.267 9.42188C40.7136 8.08435 42.519 7.19801 44.462 6.87151C46.4049 6.54501 48.4009 6.79255 50.2052 7.58379C52.0096 8.37502 53.5438 9.67555 54.6198 11.3259C55.6959 12.9763 56.267 14.9048 56.2631 16.875V27C56.2626 28.0497 56.0112 29.084 55.5297 30.0167L50.0571 40.05L62.5809 48.2448C63.4076 48.7858 64.086 49.5249 64.5544 50.3948C65.0228 51.2647 65.2664 52.2379 65.2631 53.2259V60.75H55.1381V65.25H69.7631V53.2257C69.7676 51.4902 69.3384 49.7811 68.5143 48.2537C67.6903 46.7262 66.4977 45.429 65.0448 44.4797Z" fill="#2D673E"/>
<path d="M44.7948 48.9797L35.7466 43.0594L39.2303 36.6725C40.0706 35.0777 40.5108 33.3026 40.5131 31.5V21.375C40.5102 17.4941 38.968 13.7728 36.2248 11.0275C33.4817 8.28217 29.7615 6.73708 25.8806 6.73116C17.8204 6.73116 11.2631 13.3005 11.2631 21.375V31.5C11.2545 33.3018 11.6899 35.0779 12.5308 36.6715L16.0335 43.093L7.03786 48.9797C5.58663 49.9274 4.39503 51.2226 3.57121 52.7476C2.74738 54.2726 2.31741 55.9792 2.32031 57.7125L2.25 69.75H49.5131V57.7257C49.5176 55.9902 49.0884 54.2811 48.2644 52.7537C47.4404 51.2262 46.2477 49.9289 44.7948 48.9797ZM45.0131 65.25H6.77616L6.81975 57.7257C6.81635 56.7377 7.05993 55.7645 7.52835 54.8946C7.99677 54.0247 8.67517 53.2857 9.50189 52.7446L21.9728 44.5843L16.4812 34.5167C16.0052 33.5826 15.759 32.5484 15.7631 31.5V21.375C15.7631 18.6897 16.8298 16.1143 18.7286 14.2155C20.6274 12.3167 23.2028 11.25 25.8881 11.25C28.5734 11.25 31.1487 12.3167 33.0475 14.2155C34.9463 16.1143 36.0131 18.6897 36.0131 21.375V31.5C36.0126 32.5497 35.7612 33.584 35.2797 34.5167L29.8072 44.55L42.3309 52.7448C43.1576 53.2858 43.836 54.0249 44.3044 54.8948C44.7729 55.7647 45.0164 56.7379 45.0131 57.7259V65.25Z" fill="#2D673E"/>
</svg>
