<svg width="60" height="60" viewBox="0 0 60 60" fill="none" xmlns="http://www.w3.org/2000/svg">
<path d="M30.0002 4.16675C15.3002 4.16675 3.3335 14.6334 3.3335 27.5001C3.3335 40.3667 15.3002 50.8334 30.0002 50.8334C32.7504 50.8302 35.4872 50.4489 38.1335 49.7001L47.3502 55.5667C47.6018 55.7282 47.8922 55.819 48.1909 55.8296C48.4897 55.8402 48.7858 55.7703 49.0483 55.6271C49.3107 55.484 49.5298 55.2729 49.6826 55.0159C49.8354 54.759 49.9163 54.4657 49.9168 54.1667V42.9501C52.0022 40.9495 53.6664 38.552 54.8113 35.8987C55.9562 33.2454 56.5588 30.3898 56.5835 27.5001C56.6668 14.6334 44.7002 4.16675 30.0002 4.16675ZM47.1502 41.0167C46.9826 41.1721 46.8488 41.3603 46.757 41.5696C46.6653 41.779 46.6176 42.0049 46.6168 42.2334V51.1334L39.3168 46.4834C39.1132 46.3547 38.8841 46.2717 38.6453 46.24C38.4065 46.2084 38.1636 46.2289 37.9335 46.3001C35.3647 47.0979 32.69 47.5025 30.0002 47.5001C17.1335 47.5001 6.66683 38.5334 6.66683 27.5001C6.66683 16.4667 17.1335 7.50008 30.0002 7.50008C42.8668 7.50008 53.3335 16.4667 53.3335 27.5001C53.2955 30.0585 52.7262 32.5812 51.6618 34.908C50.5974 37.2348 49.061 39.3151 47.1502 41.0167Z" fill="#364a5a"/>
<path d="M30 34.3832C30.442 34.3832 30.866 34.2076 31.1785 33.8951C31.4911 33.5825 31.6667 33.1586 31.6667 32.7166V14.1332C31.6667 13.6912 31.4911 13.2673 31.1785 12.9547C30.866 12.6421 30.442 12.4666 30 12.4666C29.558 12.4666 29.1341 12.6421 28.8215 12.9547C28.5089 13.2673 28.3333 13.6912 28.3333 14.1332V32.6832C28.3289 32.9049 28.3687 33.1252 28.4505 33.3313C28.5323 33.5373 28.6543 33.725 28.8096 33.8833C28.9648 34.0417 29.15 34.1674 29.3544 34.2532C29.5588 34.3391 29.7783 34.3833 30 34.3832V34.3832Z" fill="#364a5a"/>
<path d="M29.9999 42.2834C31.2241 42.2834 32.2165 41.291 32.2165 40.0668C32.2165 38.8425 31.2241 37.8501 29.9999 37.8501C28.7756 37.8501 27.7832 38.8425 27.7832 40.0668C27.7832 41.291 28.7756 42.2834 29.9999 42.2834Z" fill="#364a5a"/>
</svg>
