<svg width="200" height="200" viewBox="0 0 200 200" fill="none" xmlns="http://www.w3.org/2000/svg">
<path d="M66.7969 17.1875H23.4375C19.9805 17.1875 17.1875 19.9805 17.1875 23.4375V67.1875C17.1875 68.9063 18.5937 70.3125 20.3125 70.3125H29.6875C31.4063 70.3125 32.8125 68.9063 32.8125 67.1875V32.8125H66.7969C68.5156 32.8125 69.9219 31.4063 69.9219 29.6875V20.3125C69.9219 18.5937 68.5156 17.1875 66.7969 17.1875ZM179.688 129.688H170.312C168.594 129.688 167.188 131.094 167.188 132.812V167.188H133.203C131.484 167.188 130.078 168.594 130.078 170.312V179.688C130.078 181.406 131.484 182.812 133.203 182.812H176.562C180.02 182.812 182.812 180.02 182.812 176.562V132.812C182.812 131.094 181.406 129.688 179.688 129.688ZM66.7969 167.188H32.8125V132.812C32.8125 131.094 31.4063 129.688 29.6875 129.688H20.3125C18.5937 129.688 17.1875 131.094 17.1875 132.812V176.562C17.1875 180.02 19.9805 182.812 23.4375 182.812H66.7969C68.5156 182.812 69.9219 181.406 69.9219 179.688V170.312C69.9219 168.594 68.5156 167.188 66.7969 167.188ZM176.562 17.1875H133.203C131.484 17.1875 130.078 18.5937 130.078 20.3125V29.6875C130.078 31.4063 131.484 32.8125 133.203 32.8125H167.188V67.1875C167.188 68.9063 168.594 70.3125 170.312 70.3125H179.688C181.406 70.3125 182.812 68.9063 182.812 67.1875V23.4375C182.812 19.9805 180.02 17.1875 176.562 17.1875Z" fill="white"/>
</svg>
