<svg width="60" height="60" viewBox="0 0 60 60" fill="none" xmlns="http://www.w3.org/2000/svg">
<path d="M26.085 20.811V24.942H23.061V29.991H26.085V45H32.301V29.991H36.471C36.471 29.991 36.864 27.57 37.053 24.921H32.325V21.471C32.325 20.952 33.003 20.259 33.675 20.259H37.059V15H32.454C25.932 15 26.085 20.055 26.085 20.811Z" fill="#DADDDD"/>
<path d="M12 6C10.4087 6 8.88258 6.63214 7.75736 7.75736C6.63214 8.88258 6 10.4087 6 12V48C6 49.5913 6.63214 51.1174 7.75736 52.2426C8.88258 53.3679 10.4087 54 12 54H48C49.5913 54 51.1174 53.3679 52.2426 52.2426C53.3679 51.1174 54 49.5913 54 48V12C54 10.4087 53.3679 8.88258 52.2426 7.75736C51.1174 6.63214 49.5913 6 48 6H12ZM12 0H48C51.1826 0 54.2348 1.26428 56.4853 3.51472C58.7357 5.76516 60 8.8174 60 12V48C60 51.1826 58.7357 54.2348 56.4853 56.4853C54.2348 58.7357 51.1826 60 48 60H12C8.8174 60 5.76516 58.7357 3.51472 56.4853C1.26428 54.2348 0 51.1826 0 48V12C0 8.8174 1.26428 5.76516 3.51472 3.51472C5.76516 1.26428 8.8174 0 12 0Z" fill="#DADDDD"/>
</svg>
