<svg width="60" height="60" viewBox="0 0 60 60" fill="none" xmlns="http://www.w3.org/2000/svg">
<path d="M30.0002 52.8571C42.6239 52.8571 52.8573 42.6236 52.8573 30C52.8573 17.3763 42.6239 7.14282 30.0002 7.14282C17.3766 7.14282 7.14307 17.3763 7.14307 30C7.14307 42.6236 17.3766 52.8571 30.0002 52.8571Z" stroke="#1D4329" stroke-width="4" stroke-linecap="round" stroke-linejoin="round"/>
<path d="M22.8571 25.7143C24.4351 25.7143 25.7143 24.4351 25.7143 22.8571C25.7143 21.2792 24.4351 20 22.8571 20C21.2792 20 20 21.2792 20 22.8571C20 24.4351 21.2792 25.7143 22.8571 25.7143Z" fill="#1D4329"/>
<path d="M37.1433 25.7143C38.7212 25.7143 40.0004 24.4351 40.0004 22.8571C40.0004 21.2792 38.7212 20 37.1433 20C35.5653 20 34.2861 21.2792 34.2861 22.8571C34.2861 24.4351 35.5653 25.7143 37.1433 25.7143Z" fill="#1D4329"/>
<path d="M21.4287 32.8572C23.1516 36.6657 26.0087 38.5715 30.0001 38.5715C33.9916 38.5715 36.8487 36.6657 38.5716 32.8572" stroke="#1D4329" stroke-width="4" stroke-linecap="round" stroke-linejoin="round"/>
</svg>
