<svg width="42" height="60" viewBox="0 0 42 60" fill="none" xmlns="http://www.w3.org/2000/svg">
<path fill-rule="evenodd" clip-rule="evenodd" d="M6 3C5.20435 3 4.44129 3.31607 3.87868 3.87868C3.31607 4.44129 3 5.20435 3 6V48C3 48.7957 3.31607 49.5587 3.87868 50.1213C4.44129 50.6839 5.20435 51 6 51H22.5V54H6C4.4087 54 2.88258 53.3679 1.75736 52.2426C0.632141 51.1174 0 49.5913 0 48V6C0 4.4087 0.632141 2.88258 1.75736 1.75736C2.88258 0.632141 4.4087 0 6 0H36C37.5913 0 39.1174 0.632141 40.2426 1.75736C41.3679 2.88258 42 4.4087 42 6V48C42 49.5913 41.3679 51.1174 40.2426 52.2426C39.1174 53.3679 37.5913 54 36 54H31.5V51H36C36.7957 51 37.5587 50.6839 38.1213 50.1213C38.6839 49.5587 39 48.7957 39 48V6C39 5.20435 38.6839 4.44129 38.1213 3.87868C37.5587 3.31607 36.7957 3 36 3H6Z" fill="#3C8A53"/>
<path fill-rule="evenodd" clip-rule="evenodd" d="M12 10.5C12 10.1022 12.158 9.72064 12.4393 9.43934C12.7206 9.15804 13.1022 9 13.5 9H28.5C28.8978 9 29.2794 9.15804 29.5607 9.43934C29.842 9.72064 30 10.1022 30 10.5C30 10.8978 29.842 11.2794 29.5607 11.5607C29.2794 11.842 28.8978 12 28.5 12H13.5C13.1022 12 12.7206 11.842 12.4393 11.5607C12.158 11.2794 12 10.8978 12 10.5Z" fill="#3C8A53"/>
<path fill-rule="evenodd" clip-rule="evenodd" d="M6 19.5C6 19.1022 6.15804 18.7206 6.43934 18.4393C6.72064 18.158 7.10218 18 7.5 18H34.5C34.8978 18 35.2794 18.158 35.5607 18.4393C35.842 18.7206 36 19.1022 36 19.5C36 19.8978 35.842 20.2794 35.5607 20.5607C35.2794 20.842 34.8978 21 34.5 21H7.5C7.10218 21 6.72064 20.842 6.43934 20.5607C6.15804 20.2794 6 19.8978 6 19.5Z" fill="#3C8A53"/>
<path fill-rule="evenodd" clip-rule="evenodd" d="M6 25.5C6 25.1022 6.15804 24.7206 6.43934 24.4393C6.72064 24.158 7.10218 24 7.5 24H34.5C34.8978 24 35.2794 24.158 35.5607 24.4393C35.842 24.7206 36 25.1022 36 25.5C36 25.8978 35.842 26.2794 35.5607 26.5607C35.2794 26.842 34.8978 27 34.5 27H7.5C7.10218 27 6.72064 26.842 6.43934 26.5607C6.15804 26.2794 6 25.8978 6 25.5Z" fill="#3C8A53"/>
<path fill-rule="evenodd" clip-rule="evenodd" d="M6 31.5C6 31.1022 6.15804 30.7206 6.43934 30.4393C6.72064 30.158 7.10218 30 7.5 30H34.5C34.8978 30 35.2794 30.158 35.5607 30.4393C35.842 30.7206 36 31.1022 36 31.5C36 31.8978 35.842 32.2794 35.5607 32.5607C35.2794 32.842 34.8978 33 34.5 33H7.5C7.10218 33 6.72064 32.842 6.43934 32.5607C6.15804 32.2794 6 31.8978 6 31.5Z" fill="#3C8A53"/>
<path fill-rule="evenodd" clip-rule="evenodd" d="M27 46.5C27.7956 46.5 28.5587 46.1839 29.1213 45.6213C29.6839 45.0587 30 44.2956 30 43.5C30 42.7044 29.6839 41.9413 29.1213 41.3787C28.5587 40.8161 27.7956 40.5 27 40.5C26.2044 40.5 25.4413 40.8161 24.8787 41.3787C24.3161 41.9413 24 42.7044 24 43.5C24 44.2956 24.3161 45.0587 24.8787 45.6213C25.4413 46.1839 26.2044 46.5 27 46.5ZM27 49.5C28.5913 49.5 30.1174 48.8679 31.2426 47.7426C32.3679 46.6174 33 45.0913 33 43.5C33 41.9087 32.3679 40.3826 31.2426 39.2574C30.1174 38.1321 28.5913 37.5 27 37.5C25.4087 37.5 23.8826 38.1321 22.7574 39.2574C21.6321 40.3826 21 41.9087 21 43.5C21 45.0913 21.6321 46.6174 22.7574 47.7426C23.8826 48.8679 25.4087 49.5 27 49.5Z" fill="#3C8A53"/>
<path fill-rule="evenodd" clip-rule="evenodd" d="M25.5 46.5H22.5V60L27 57.75L31.5 60V46.5H28.5V55.146L27 54.396L25.5 55.146V46.5Z" fill="#3C8A53"/>
</svg>
