<svg width="60" height="60" viewBox="0 0 60 60" fill="none" xmlns="http://www.w3.org/2000/svg">
<path d="M42.5 32.8252V42.0677H37.1425V33.4427C37.1425 31.2777 36.3675 29.8002 34.4275 29.8002C32.9475 29.8002 32.065 30.7952 31.6775 31.7602C31.5375 32.1052 31.5 32.5852 31.5 33.0652V42.0677H26.14C26.14 42.0677 26.2125 27.4627 26.14 25.9502H31.5V28.2327L31.465 28.2852H31.5V28.2352C32.2125 27.1352 33.4825 25.5702 36.33 25.5702C39.855 25.5702 42.5 27.8752 42.5 32.8252V32.8252ZM20.5325 18.1777C18.7 18.1777 17.5 19.3827 17.5 20.9627C17.5 22.5127 18.665 23.7502 20.4625 23.7502H20.4975C22.3675 23.7502 23.53 22.5102 23.53 20.9627C23.495 19.3827 22.3675 18.1777 20.5325 18.1777V18.1777ZM17.8175 42.0677H23.1775V25.9502H17.8175V42.0677V42.0677Z" fill="#404545"/>
<path d="M15 10C13.6739 10 12.4021 10.5268 11.4645 11.4645C10.5268 12.4021 10 13.6739 10 15V45C10 46.3261 10.5268 47.5979 11.4645 48.5355C12.4021 49.4732 13.6739 50 15 50H45C46.3261 50 47.5979 49.4732 48.5355 48.5355C49.4732 47.5979 50 46.3261 50 45V15C50 13.6739 49.4732 12.4021 48.5355 11.4645C47.5979 10.5268 46.3261 10 45 10H15ZM15 5H45C47.6522 5 50.1957 6.05357 52.0711 7.92893C53.9464 9.8043 55 12.3478 55 15V45C55 47.6522 53.9464 50.1957 52.0711 52.0711C50.1957 53.9464 47.6522 55 45 55H15C12.3478 55 9.8043 53.9464 7.92893 52.0711C6.05357 50.1957 5 47.6522 5 45V15C5 12.3478 6.05357 9.8043 7.92893 7.92893C9.8043 6.05357 12.3478 5 15 5V5Z" fill="#404545"/>
</svg>
