<svg width="60" height="60" viewBox="0 0 60 60" fill="none" xmlns="http://www.w3.org/2000/svg">
<path fill-rule="evenodd" clip-rule="evenodd" d="M17.6318 0.18C20.8309 0.0327272 21.8509 0 30 0C38.1491 0 39.1691 0.0354545 42.3655 0.18C45.5618 0.324545 47.7436 0.834546 49.6527 1.57364C51.6518 2.32909 53.4655 3.51 54.9655 5.03727C56.4927 6.53455 57.6709 8.34546 58.4236 10.3473C59.1655 12.2564 59.6727 14.4382 59.82 17.6291C59.9673 20.8336 60 21.8536 60 30C60 38.1491 59.9645 39.1691 59.82 42.3682C59.6755 45.5591 59.1655 47.7409 58.4236 49.65C57.6709 51.6521 56.4908 53.466 54.9655 54.9655C53.4655 56.4927 51.6518 57.6709 49.6527 58.4236C47.7436 59.1655 45.5618 59.6727 42.3709 59.82C39.1691 59.9673 38.1491 60 30 60C21.8509 60 20.8309 59.9645 17.6318 59.82C14.4409 59.6755 12.2591 59.1655 10.35 58.4236C8.34797 57.6708 6.53406 56.4907 5.03455 54.9655C3.50831 53.4673 2.32722 51.6542 1.57364 49.6527C0.834546 47.7436 0.327273 45.5618 0.18 42.3709C0.0327272 39.1664 0 38.1464 0 30C0 21.8509 0.0354545 20.8309 0.18 17.6345C0.324545 14.4382 0.834546 12.2564 1.57364 10.3473C2.32834 8.34568 3.51032 6.53267 5.03727 5.03455C6.53466 3.50864 8.34674 2.32757 10.3473 1.57364C12.2564 0.834546 14.4382 0.327273 17.6291 0.18H17.6318ZM42.1227 5.58C38.9591 5.43545 38.01 5.40546 30 5.40546C21.99 5.40546 21.0409 5.43545 17.8773 5.58C14.9509 5.71364 13.3636 6.20182 12.3055 6.61364C10.9064 7.15909 9.90546 7.80546 8.85546 8.85546C7.86012 9.82378 7.09413 11.0026 6.61364 12.3055C6.20182 13.3636 5.71364 14.9509 5.58 17.8773C5.43545 21.0409 5.40546 21.99 5.40546 30C5.40546 38.01 5.43545 38.9591 5.58 42.1227C5.71364 45.0491 6.20182 46.6364 6.61364 47.6945C7.09364 48.9955 7.86 50.1764 8.85546 51.1445C9.82364 52.14 11.0045 52.9064 12.3055 53.3864C13.3636 53.7982 14.9509 54.2864 17.8773 54.42C21.0409 54.5645 21.9873 54.5945 30 54.5945C38.0127 54.5945 38.9591 54.5645 42.1227 54.42C45.0491 54.2864 46.6364 53.7982 47.6945 53.3864C49.0936 52.8409 50.0945 52.1945 51.1445 51.1445C52.14 50.1764 52.9064 48.9955 53.3864 47.6945C53.7982 46.6364 54.2864 45.0491 54.42 42.1227C54.5645 38.9591 54.5945 38.01 54.5945 30C54.5945 21.99 54.5645 21.0409 54.42 17.8773C54.2864 14.9509 53.7982 13.3636 53.3864 12.3055C52.8409 10.9064 52.1945 9.90546 51.1445 8.85546C50.1762 7.86019 48.9974 7.09421 47.6945 6.61364C46.6364 6.20182 45.0491 5.71364 42.1227 5.58ZM26.1682 39.2482C28.3082 40.139 30.691 40.2592 32.9098 39.5883C35.1286 38.9174 37.0456 37.497 38.3335 35.5698C39.6213 33.6425 40.2001 31.3278 39.971 29.0212C39.7419 26.7146 38.7191 24.559 37.0773 22.9227C36.0306 21.8768 34.7651 21.0759 33.3718 20.5777C31.9785 20.0795 30.4921 19.8964 29.0195 20.0417C27.547 20.1869 26.125 20.6568 24.8558 21.4176C23.5867 22.1784 22.502 23.2111 21.6799 24.4414C20.8578 25.6717 20.3187 27.069 20.1014 28.5326C19.8841 29.9963 19.994 31.4899 20.4233 32.906C20.8525 34.322 21.5904 35.6253 22.5838 36.722C23.5772 37.8186 24.8013 38.6814 26.1682 39.2482ZM19.0964 19.0964C20.5282 17.6645 22.2281 16.5286 24.099 15.7537C25.9698 14.9788 27.975 14.5799 30 14.5799C32.025 14.5799 34.0302 14.9788 35.901 15.7537C37.7719 16.5286 39.4718 17.6645 40.9036 19.0964C42.3355 20.5282 43.4714 22.2281 44.2463 24.099C45.0212 25.9698 45.4201 27.975 45.4201 30C45.4201 32.025 45.0212 34.0302 44.2463 35.901C43.4714 37.7719 42.3355 39.4718 40.9036 40.9036C38.0118 43.7955 34.0897 45.4201 30 45.4201C25.9103 45.4201 21.9882 43.7955 19.0964 40.9036C16.2045 38.0118 14.5799 34.0897 14.5799 30C14.5799 25.9103 16.2045 21.9882 19.0964 19.0964ZM48.84 16.8764C49.1948 16.5416 49.4789 16.1391 49.6754 15.6927C49.8719 15.2462 49.9768 14.7648 49.9839 14.2771C49.991 13.7893 49.9002 13.3051 49.7168 12.8531C49.5334 12.4011 49.2612 11.9905 48.9163 11.6456C48.5713 11.3006 48.1607 11.0284 47.7087 10.845C47.2567 10.6617 46.7725 10.5708 46.2847 10.578C45.797 10.5851 45.3156 10.69 44.8692 10.8864C44.4227 11.0829 44.0202 11.367 43.6855 11.7218C43.0345 12.4119 42.6781 13.3285 42.6919 14.2771C42.7057 15.2257 43.0887 16.1315 43.7595 16.8023C44.4303 17.4731 45.3362 17.8561 46.2847 17.8699C47.2333 17.8837 48.1499 17.5273 48.84 16.8764Z" fill="#DADDDD"/>
</svg>
