<svg width="240" height="44" viewBox="0 0 240 44" fill="none" xmlns="http://www.w3.org/2000/svg">
<path d="M20.0124 34.6585C22.0551 34.6585 23.6573 34.2877 24.8191 33.5461C25.9809 32.8046 26.5618 31.6529 26.5618 30.0911V29.9697C26.583 29.3237 26.4461 28.6824 26.1629 28.1014C25.8798 27.5204 25.459 27.0173 24.9371 26.636C23.8539 25.8136 22.1112 25.4034 19.709 25.4057H9.01348V34.6585H20.0124ZM17.5483 17.7136C19.591 17.7136 21.2135 17.363 22.4157 16.6619C23.618 15.9607 24.218 14.8282 24.2157 13.2641V13.1461C24.2459 12.5237 24.1188 11.9037 23.846 11.3434C23.5732 10.7831 23.1636 10.3006 22.6551 9.94052C21.6146 9.19894 20.1124 8.82816 18.1483 8.82816H9.01348V17.7237L17.5483 17.7136ZM0 0.704559H19.5C24.3382 0.704559 27.9966 1.94726 30.4753 4.43265C31.4162 5.36569 32.1566 6.48112 32.651 7.71053C33.1455 8.93994 33.3835 10.2574 33.3506 11.5821V11.7034C33.3693 12.7824 33.2169 13.8576 32.8989 14.8888C32.6199 15.7715 32.2195 16.611 31.709 17.3832C31.2228 18.1095 30.6399 18.7661 29.9764 19.3349C29.327 19.8919 28.6182 20.3757 27.8629 20.7776C30.2865 21.6978 32.2079 22.9518 33.5933 24.5326C34.9787 26.1136 35.6865 28.3079 35.6865 31.1124V31.2338C35.7286 32.9838 35.3482 34.7182 34.5775 36.29C33.8324 37.7354 32.7417 38.9744 31.4023 39.8967C29.8882 40.915 28.201 41.6483 26.4236 42.0607C24.311 42.5599 22.1459 42.8021 19.9753 42.7821H0V0.704559Z" fill="#2D673E"/>
<path d="M59.3258 34.9585C61.0809 34.9794 62.8211 34.635 64.4359 33.9473C65.9523 33.296 67.3127 32.3297 68.427 31.1124C69.5415 29.8936 70.4184 28.4771 71.0123 26.936C71.6396 25.3176 71.9552 23.5952 71.9427 21.8596V21.7383C71.9533 19.9929 71.6378 18.261 71.0123 16.6315C70.4211 15.0696 69.525 13.6408 68.3763 12.4284C67.2276 11.2161 65.8492 10.2443 64.3213 9.56972C62.7136 8.85875 60.9724 8.50016 59.2146 8.51803C57.4502 8.4908 55.6999 8.83535 54.0775 9.52927C52.5719 10.1827 51.2203 11.1451 50.1101 12.354C48.9976 13.5776 48.1221 14.9971 47.5281 16.5405C46.9012 18.159 46.5855 19.8813 46.5977 21.6169V21.7383C46.5871 23.4836 46.9026 25.2155 47.5281 26.845C48.7284 29.9897 51.1276 32.5295 54.1989 33.9068C55.8124 34.6217 57.5611 34.9804 59.3258 34.9585ZM59.2079 43.4933C56.1388 43.5266 53.0943 42.9431 50.255 41.7776C47.621 40.7037 45.2179 39.1336 43.1764 37.1529C41.1893 35.2024 39.6154 32.8718 38.5483 30.3001C37.4386 27.6301 36.8769 24.7644 36.8966 21.8731V21.7383C36.8787 18.8438 37.4522 15.9762 38.582 13.3113C39.6806 10.7005 41.2838 8.33226 43.2996 6.34244C45.3155 4.35261 47.7043 2.78033 50.3292 1.71579C56.0902 -0.571929 62.5076 -0.571929 68.2685 1.71579C70.8951 2.79249 73.291 4.36235 75.327 6.34051C77.3205 8.28321 78.9015 10.6083 79.9753 13.1765C81.085 15.8464 81.6467 18.7121 81.627 21.6034V21.7383C81.6472 24.6384 81.0736 27.512 79.9416 30.1821C78.8443 32.7937 77.2415 35.1625 75.2255 37.1525C73.2095 39.1425 70.82 40.7143 68.1944 41.7776C65.344 42.9416 62.2899 43.5249 59.2112 43.4933H59.2079Z" fill="#2D673E"/>
<path d="M101.663 34.4192C103.426 34.4392 105.178 34.1329 106.83 33.5158C108.334 32.9536 109.697 32.0728 110.828 30.9338C111.94 29.7932 112.818 28.4452 113.41 26.9664C114.049 25.3408 114.365 23.6062 114.341 21.8596V21.7383C114.359 19.9923 114.043 18.259 113.41 16.6315C112.828 15.1293 111.95 13.7595 110.828 12.6034C109.695 11.4606 108.332 10.5703 106.83 9.99108C105.183 9.35407 103.429 9.03717 101.663 9.05737H94.5102V34.4192H101.663ZM85.2574 0.711301H101.663C104.75 0.676668 107.817 1.21735 110.707 2.30568C113.333 3.29944 115.738 4.7998 117.785 6.72141C119.759 8.59364 121.324 10.8547 122.38 13.3619C123.476 15.977 124.029 18.788 124.005 21.6237V21.7383C124.028 24.5836 123.475 27.4043 122.38 30.0304C121.329 32.5495 119.765 34.8216 117.785 36.7012C115.735 38.6266 113.331 40.1364 110.707 41.1473C107.822 42.2554 104.753 42.8067 101.663 42.772H85.2574V0.704559V0.711301Z" fill="#2D673E"/>
<path d="M127.645 0.704559H159.313V8.93602H136.78V17.4709H156.61V25.7023H136.78V34.5371H159.613V42.7686H127.645V0.704559Z" fill="#2D673E"/>
<path d="M180.182 43.3719C176.964 43.3693 173.771 42.8105 170.744 41.7203C167.626 40.6027 164.761 38.8759 162.317 36.6405L167.784 30.091C169.59 31.5803 171.579 32.8321 173.703 33.8158C175.791 34.7514 178.056 35.223 180.344 35.1978C182.267 35.1978 183.76 34.8472 184.82 34.1461C185.319 33.8441 185.729 33.4157 186.009 32.9043C186.289 32.3929 186.429 31.8166 186.415 31.2337V31.1124C186.423 30.5635 186.308 30.0197 186.078 29.5214C185.783 28.982 185.346 28.5341 184.814 28.227C183.993 27.7384 183.125 27.3362 182.221 27.027C181.119 26.6259 179.676 26.2045 177.913 25.763C175.952 25.2953 174.019 24.7134 172.126 24.0203C170.547 23.4646 169.063 22.6687 167.727 21.6607C166.529 20.7264 165.569 19.5216 164.926 18.145C164.252 16.7427 163.915 15 163.915 12.9169V12.7989C163.898 10.999 164.278 9.21751 165.027 7.58093C165.737 6.04925 166.766 4.68643 168.044 3.58318C169.403 2.42463 170.978 1.54704 172.679 1.00116C174.596 0.379132 176.602 0.0740032 178.618 0.0977868C181.511 0.0668272 184.388 0.534334 187.122 1.47981C189.699 2.3988 192.105 3.73954 194.242 5.44722L189.438 12.4248C187.707 11.2225 185.854 10.2057 183.91 9.39105C182.203 8.67007 180.37 8.2921 178.517 8.27869C176.719 8.27869 175.371 8.62925 174.472 9.33037C174.054 9.62609 173.714 10.0177 173.48 10.4723C173.245 10.9269 173.123 11.4312 173.124 11.9427V12.0641C173.109 12.678 173.243 13.2863 173.515 13.8371C173.851 14.4094 174.34 14.8764 174.927 15.1854C175.816 15.6697 176.757 16.053 177.731 16.3281C178.925 16.6888 180.428 17.1068 182.218 17.5888C184.16 18.0842 186.065 18.7161 187.918 19.4798C189.446 20.0985 190.868 20.9502 192.135 22.0045C193.249 22.9458 194.135 24.127 194.727 25.4596C195.342 26.9656 195.64 28.5826 195.6 30.209V30.327C195.625 32.2463 195.226 34.1474 194.434 35.8955C193.703 37.4814 192.621 38.8798 191.269 39.9843C189.83 41.1284 188.184 41.9845 186.421 42.5057C184.397 43.1094 182.294 43.4037 180.182 43.3787V43.3719Z" fill="#2D673E"/>
<path d="M223.17 25.163L217.581 11.5214L211.992 25.163H223.17ZM213.435 0.404541H221.97L240 42.772H230.326L226.48 33.3338H208.689L204.843 42.772H195.405L213.435 0.404541Z" fill="#2D673E"/>
</svg>
