<svg width="365" height="42" viewBox="0 0 365 42" fill="none" xmlns="http://www.w3.org/2000/svg">
<path d="M19.177 33.212C21.1345 33.212 22.6698 32.8567 23.7831 32.146C24.8964 31.4354 25.4531 30.3318 25.4531 28.8352V28.7189C25.4734 28.0999 25.3422 27.4853 25.0709 26.9285C24.7995 26.3718 24.3963 25.8897 23.8962 25.5244C22.8583 24.7362 21.1883 24.3432 18.8863 24.3454H8.63726V33.212H19.177ZM16.8158 16.9743C18.7733 16.9743 20.328 16.6384 21.4801 15.9665C22.6322 15.2947 23.2071 14.2094 23.205 12.7106V12.5976C23.2339 12.0011 23.112 11.407 22.8506 10.8701C22.5892 10.3332 22.1968 9.87084 21.7094 9.52574C20.7124 8.81512 19.2729 8.45981 17.3908 8.45981H8.63726V16.984L16.8158 16.9743ZM0 0.675293H18.6861C23.3223 0.675293 26.828 1.86612 29.2032 4.24777C30.1049 5.14187 30.8144 6.21074 31.2882 7.38883C31.7619 8.56692 31.9901 9.82939 31.9585 11.0988V11.2151C31.9765 12.249 31.8304 13.2793 31.5257 14.2675C31.2584 15.1133 30.8746 15.9178 30.3854 16.6578C29.9195 17.3537 29.361 17.9829 28.7252 18.528C28.1029 19.0618 27.4237 19.5254 26.6999 19.9105C29.0223 20.7923 30.8635 21.9939 32.1911 23.5088C33.5186 25.0237 34.1969 27.1265 34.1969 29.8139V29.9302C34.2372 31.6072 33.8727 33.2692 33.1343 34.7753C32.4202 36.1605 31.375 37.3477 30.0915 38.2315C28.6407 39.2073 27.0239 39.9101 25.3207 40.3052C23.2963 40.7835 21.2215 41.0156 19.1415 40.9965H0V0.675293Z" fill="#DADDDD"/>
<path d="M56.8496 33.4993C58.5314 33.5193 60.199 33.1893 61.7464 32.5303C63.1994 31.9062 64.503 30.9802 65.5708 29.8138C66.6388 28.6458 67.4791 27.2885 68.0483 25.8117C68.6493 24.2608 68.9518 22.6104 68.9398 20.9472V20.8309C68.95 19.1584 68.6476 17.4987 68.0483 15.9373C67.4817 14.4405 66.623 13.0714 65.5222 11.9097C64.4215 10.7479 63.1006 9.81671 61.6366 9.17028C60.096 8.48899 58.4274 8.14536 56.743 8.16249C55.0523 8.13639 53.375 8.46656 51.8203 9.13151C50.3775 9.75771 49.0823 10.6799 48.0185 11.8383C46.9524 13.0108 46.1134 14.3712 45.5443 15.8501C44.9435 17.401 44.6411 19.0514 44.6528 20.7146V20.8309C44.6426 22.5034 44.9449 24.163 45.5443 25.7245C46.6945 28.7379 48.9935 31.1717 51.9366 32.4915C53.4828 33.1766 55.1585 33.5203 56.8496 33.4993ZM56.7365 41.6779C53.7956 41.7098 50.8782 41.1507 48.1574 40.0338C45.6333 39.0047 43.3305 37.5002 41.3742 35.6021C39.4701 33.733 37.9618 31.4997 36.9393 29.0353C35.8759 26.4768 35.3377 23.7307 35.3566 20.9601V20.8309C35.3394 18.0573 35.889 15.3093 36.9716 12.7557C38.0243 10.2539 39.5606 7.98447 41.4923 6.0777C43.424 4.17093 45.7132 2.66428 48.2285 1.64417C53.749 -0.548056 59.8985 -0.548056 65.419 1.64417C67.9359 2.67593 70.2319 4.18026 72.1828 6.07585C74.0932 7.93746 75.6082 10.1655 76.6371 12.6265C77.7005 15.1849 78.2387 17.9311 78.2198 20.7017V20.8309C78.2392 23.61 77.6896 26.3636 76.6048 28.9223C75.5533 31.4248 74.0175 33.6948 72.0856 35.6018C70.1537 37.5087 67.8639 39.0149 65.3479 40.0338C62.6165 41.1492 59.69 41.7081 56.7397 41.6779H56.7365Z" fill="#DADDDD"/>
<path d="M97.4195 32.9826C99.1093 33.0018 100.788 32.7083 102.371 32.117C103.812 31.5782 105.119 30.7342 106.202 29.6427C107.268 28.5497 108.109 27.258 108.676 25.8409C109.289 24.2832 109.592 22.621 109.568 20.9473V20.831C109.585 19.158 109.283 17.497 108.676 15.9375C108.119 14.498 107.277 13.1853 106.202 12.0775C105.116 10.9823 103.81 10.1292 102.371 9.57419C100.793 8.96377 99.112 8.66009 97.4195 8.67945H90.5653V32.9826H97.4195ZM81.6987 0.681753H97.4195C100.378 0.648566 103.317 1.16668 106.086 2.20958C108.602 3.16186 110.907 4.59959 112.869 6.441C114.76 8.23508 116.26 10.4017 117.272 12.8043C118.322 15.3103 118.852 18.0039 118.829 20.7212V20.831C118.851 23.5576 118.321 26.2605 117.272 28.7771C116.265 31.191 114.765 33.3683 112.869 35.1694C110.904 37.0144 108.601 38.4613 106.086 39.4299C103.321 40.4918 100.381 41.0201 97.4195 40.9868H81.6987V0.675293V0.681753Z" fill="#DADDDD"/>
<path d="M122.317 0.675293H152.664V8.56317H131.071V16.7418H150.073V24.6296H131.071V33.0957H152.951V40.9836H122.317V0.675293Z" fill="#DADDDD"/>
<path d="M172.661 41.5615C169.578 41.559 166.518 41.0235 163.617 39.9788C160.629 38.9079 157.884 37.2532 155.542 35.1111L160.781 28.835C162.511 30.2621 164.418 31.4616 166.453 32.4042C168.453 33.3009 170.624 33.7527 172.816 33.7286C174.66 33.7286 176.089 33.3927 177.106 32.7208C177.584 32.4314 177.977 32.0209 178.245 31.5308C178.513 31.0407 178.647 30.4885 178.634 29.93V29.8137C178.642 29.2877 178.531 28.7666 178.311 28.2891C178.029 27.7722 177.609 27.343 177.099 27.0488C176.313 26.5805 175.481 26.1952 174.615 25.8988C173.559 25.5145 172.177 25.1107 170.487 24.6876C168.608 24.2394 166.756 23.6818 164.941 23.0176C163.428 22.4851 162.007 21.7225 160.726 20.7565C159.578 19.8612 158.658 18.7067 158.042 17.3876C157.396 16.0438 157.073 14.3739 157.073 12.3777V12.2646C157.057 10.5399 157.421 8.83273 158.139 7.26446C158.819 5.79671 159.805 4.49078 161.03 3.43358C162.332 2.32339 163.842 1.48242 165.471 0.959332C167.309 0.36327 169.231 0.0708768 171.162 0.0936677C173.935 0.0640004 176.692 0.511993 179.312 1.418C181.781 2.29864 184.086 3.58341 186.134 5.21982L181.531 11.9061C179.872 10.7541 178.096 9.77968 176.234 8.99902C174.598 8.30814 172.842 7.94595 171.066 7.93309C169.343 7.93309 168.051 8.26902 167.189 8.94088C166.789 9.22425 166.463 9.59952 166.238 10.0351C166.014 10.4708 165.897 10.954 165.897 11.4442V11.5605C165.884 12.1487 166.012 12.7316 166.272 13.2595C166.594 13.8079 167.063 14.2554 167.626 14.5515C168.478 15.0156 169.379 15.3829 170.313 15.6465C171.456 15.9922 172.897 16.3927 174.612 16.8546C176.473 17.3294 178.298 17.9349 180.074 18.6667C181.538 19.2596 182.901 20.0757 184.115 21.086C185.182 21.988 186.032 23.1199 186.599 24.3969C187.189 25.84 187.474 27.3895 187.436 28.948V29.0611C187.459 30.9003 187.078 32.7221 186.318 34.3972C185.618 35.9169 184.581 37.2569 183.285 38.3153C181.906 39.4117 180.329 40.232 178.64 40.7314C176.701 41.31 174.685 41.592 172.661 41.568V41.5615Z" fill="#DADDDD"/>
<path d="M213.854 24.1127L208.499 11.0405L203.143 24.1127H213.854ZM204.526 0.387695H212.704L229.982 40.9867H220.712L217.026 31.9424H199.978L196.292 40.9867H187.248L204.526 0.387695Z" fill="#DADDDD"/>
<path d="M245.306 29.5231C244.035 29.525 242.774 29.3064 241.578 28.8771C240.349 28.434 239.219 27.7523 238.255 26.8712L240.416 24.2871C241.129 24.8752 241.915 25.3692 242.754 25.7568C243.579 26.1264 244.473 26.3126 245.377 26.3027C245.995 26.3396 246.61 26.1959 247.147 25.8892C247.347 25.7714 247.512 25.6026 247.626 25.4C247.739 25.1974 247.797 24.9683 247.793 24.7361V24.6909C247.797 24.4736 247.752 24.2582 247.661 24.061C247.546 23.8476 247.374 23.6708 247.163 23.5506C246.839 23.3572 246.496 23.1981 246.139 23.0758C245.709 22.9186 245.141 22.7517 244.437 22.5752C243.662 22.3916 242.898 22.1619 242.15 21.8872C241.526 21.6664 240.94 21.3505 240.412 20.9504C239.939 20.581 239.559 20.1052 239.304 19.5615C239.024 18.9093 238.891 18.2036 238.914 17.4942V17.449C238.903 16.7415 239.047 16.0403 239.337 15.3947C239.617 14.7893 240.023 14.2508 240.529 13.8152C241.066 13.3579 241.688 13.0111 242.36 12.7945C243.118 12.5506 243.909 12.4307 244.705 12.4391C245.848 12.4259 246.984 12.6106 248.064 12.985C249.083 13.3471 250.034 13.8766 250.878 14.5516L248.978 17.3069C248.294 16.8316 247.563 16.4289 246.795 16.1053C246.118 15.8204 245.391 15.6712 244.657 15.666C244.087 15.6226 243.519 15.7691 243.042 16.0827C242.876 16.1997 242.742 16.3546 242.649 16.5345C242.556 16.7144 242.508 16.9139 242.509 17.1163V17.1648C242.503 17.4065 242.556 17.646 242.664 17.8625C242.795 18.09 242.987 18.2759 243.219 18.3987C243.571 18.5884 243.943 18.739 244.327 18.8476C244.799 18.993 245.39 19.1706 246.1 19.3483C246.871 19.5434 247.626 19.7928 248.362 20.0945C248.966 20.3382 249.528 20.675 250.028 21.0925C250.469 21.4642 250.819 21.9315 251.052 22.4589C251.298 23.0522 251.415 23.6905 251.398 24.3323V24.384C251.412 25.14 251.26 25.8897 250.952 26.5805C250.661 27.2065 250.233 27.7586 249.699 28.1955C249.131 28.6476 248.482 28.9864 247.787 29.1936C246.986 29.4308 246.154 29.5462 245.319 29.536L245.306 29.5231Z" fill="#DADDDD"/>
<path d="M262.283 22.3295L260.087 16.9547L257.881 22.3457L262.283 22.3295ZM258.449 12.5488H261.821L268.927 29.2871H265.119L263.601 25.5596H256.572L255.054 29.2871H251.327L258.433 12.5488H258.449Z" fill="#DADDDD"/>
<path d="M276.244 21.0471C277.024 21.0955 277.792 20.8357 278.382 20.3236C278.628 20.0951 278.822 19.8173 278.953 19.5084C279.084 19.1994 279.148 18.8663 279.141 18.5309V18.4824C279.165 18.1293 279.105 17.7755 278.967 17.4495C278.829 17.1235 278.616 16.8345 278.346 16.6058C277.718 16.1459 276.95 15.9177 276.173 15.9597H273.349V21.0407L276.244 21.0471ZM269.693 12.665H276.476C277.384 12.6508 278.287 12.7917 279.147 13.0817C279.885 13.3327 280.564 13.7329 281.14 14.2575C281.686 14.7647 282.116 15.3839 282.4 16.0728C282.699 16.8158 282.848 17.6105 282.839 18.4114V18.4598C282.858 19.3347 282.679 20.2026 282.316 20.9987C281.982 21.7094 281.491 22.3346 280.879 22.8269C280.25 23.3292 279.529 23.7044 278.757 23.9316C277.905 24.1821 277.021 24.3062 276.134 24.2998H273.356V29.2871H269.693V12.665Z" fill="#DADDDD"/>
<path d="M283.902 12.665H287.559V29.2838H283.902V12.665Z" fill="#DADDDD"/>
<path d="M302.789 26.4609C303.202 26.4637 303.612 26.3789 303.99 26.2122C304.36 26.045 304.69 25.8018 304.959 25.4984C305.247 25.1709 305.473 24.7931 305.625 24.384C305.794 23.9239 305.878 23.4368 305.873 22.9466V22.8981C305.878 22.4089 305.794 21.9229 305.625 21.464C305.473 21.0539 305.247 20.6751 304.959 20.3464C304.543 19.8893 303.993 19.5747 303.388 19.4472C302.783 19.3197 302.153 19.3856 301.587 19.6357C301.214 19.8035 300.879 20.0453 300.602 20.3464C300.309 20.6689 300.08 21.0437 299.927 21.451C299.754 21.9135 299.669 22.4044 299.678 22.8981V22.9466C299.671 23.437 299.756 23.9244 299.927 24.384C300.078 24.7954 300.307 25.1738 300.602 25.4984C300.879 25.8004 301.214 26.0432 301.587 26.2122C301.964 26.3786 302.373 26.4634 302.785 26.4609H302.789ZM301.865 29.523C301.123 29.5234 300.389 29.3785 299.704 29.0967C299.003 28.8105 298.372 28.3776 297.853 27.8272C297.292 27.2287 296.853 26.5265 296.561 25.76C296.222 24.8615 296.056 23.9068 296.073 22.9466V22.8981C296.057 21.9379 296.222 20.9833 296.561 20.0847C296.856 19.3207 297.295 18.6201 297.853 18.0207C298.367 17.4691 298.996 17.036 299.694 16.7513C300.386 16.465 301.129 16.3189 301.878 16.3217C302.711 16.2885 303.537 16.4864 304.265 16.8934C304.859 17.2465 305.392 17.695 305.841 18.221V11.9546H309.443V29.2872H305.828V27.459C305.391 28.0532 304.842 28.5567 304.213 28.9416C303.496 29.3533 302.678 29.5548 301.852 29.523H301.865Z" fill="#DADDDD"/>
<path d="M319.21 21.9255C319.134 21.2002 318.835 20.5163 318.354 19.9681C318.122 19.7186 317.838 19.5223 317.522 19.393C317.207 19.2636 316.867 19.2042 316.526 19.2187C316.185 19.2051 315.844 19.2636 315.527 19.3905C315.21 19.5174 314.923 19.7098 314.685 19.9552C314.19 20.5058 313.872 21.1921 313.771 21.9255H319.21ZM316.872 29.5712C315.968 29.5795 315.071 29.4184 314.226 29.0963C313.435 28.7959 312.715 28.3351 312.11 27.7429C311.519 27.1519 311.052 26.4492 310.734 25.6757C310.395 24.8266 310.226 23.9189 310.237 23.0044V22.9559C310.233 22.08 310.389 21.2107 310.699 20.3912C310.99 19.6109 311.429 18.8938 311.991 18.2788C312.567 17.6567 313.267 17.1626 314.046 16.8287C314.825 16.4948 315.666 16.3286 316.513 16.3407C317.463 16.3175 318.406 16.5132 319.268 16.9124C320.021 17.2717 320.683 17.7948 321.206 18.4435C321.728 19.0964 322.114 19.8463 322.343 20.6496C322.591 21.4942 322.715 22.3699 322.712 23.2499C322.712 23.392 322.712 23.5438 322.712 23.7021C322.712 23.8604 322.692 24.0251 322.676 24.1995H313.819C313.939 24.9316 314.323 25.5945 314.898 26.0633C315.483 26.5024 316.199 26.7301 316.93 26.7093C317.484 26.7129 318.034 26.603 318.545 26.3863C319.086 26.1356 319.582 25.7985 320.014 25.3882L322.082 27.2164C321.491 27.9509 320.745 28.5463 319.898 28.9607C318.954 29.3993 317.922 29.6148 316.881 29.5905L316.872 29.5712Z" fill="#DADDDD"/>
<path d="M338.881 29.5716C337.715 29.5817 336.559 29.3554 335.483 28.9062C334.472 28.484 333.553 27.8673 332.78 27.0909C332.011 26.3113 331.405 25.3868 330.997 24.3712C330.565 23.3087 330.345 22.1718 330.351 21.0248V20.9763C330.344 19.8324 330.564 18.6985 330.997 17.6397C331.411 16.6239 332.016 15.6973 332.78 14.9102C333.554 14.1141 334.483 13.4843 335.509 13.0594C336.622 12.5967 337.818 12.3659 339.024 12.3811C339.736 12.3759 340.448 12.4398 341.149 12.5716C341.747 12.6851 342.332 12.8604 342.893 13.0949C343.404 13.3091 343.89 13.58 344.34 13.9024C344.78 14.2148 345.193 14.5639 345.574 14.9458L343.248 17.63C342.655 17.0804 341.987 16.6162 341.265 16.2507C340.56 15.9117 339.786 15.7414 339.004 15.7533C338.337 15.7473 337.676 15.885 337.066 16.157C336.483 16.4169 335.961 16.7966 335.535 17.2714C335.104 17.7555 334.765 18.3151 334.537 18.922C334.298 19.5636 334.178 20.2433 334.182 20.9279V20.9763C334.178 21.6651 334.298 22.3489 334.537 22.9951C334.757 23.6024 335.086 24.1649 335.506 24.6554C335.941 25.1468 336.477 25.5389 337.078 25.8053C337.678 26.0716 338.328 26.206 338.985 26.1994C339.827 26.2298 340.664 26.0499 341.42 25.6761C342.134 25.2905 342.793 24.8114 343.381 24.2516L345.707 26.6032C345.296 27.0479 344.853 27.4604 344.379 27.837C343.913 28.2055 343.407 28.5207 342.871 28.777C342.299 29.0455 341.697 29.244 341.078 29.3681C340.359 29.5105 339.627 29.5787 338.894 29.5716H338.881Z" fill="#DADDDD"/>
<path d="M345.374 12.665H349.412L353.756 24.3709L358.1 12.665H362.041L355.323 29.4034H352.093L345.374 12.665Z" fill="#DADDDD"/>
<path fill-rule="evenodd" clip-rule="evenodd" d="M235.296 0.410645H365V3.77317H235.296V0.410645Z" fill="#DADDDD"/>
<path fill-rule="evenodd" clip-rule="evenodd" d="M235.296 37.6211H365V40.9836H235.296V37.6211Z" fill="#DADDDD"/>
</svg>
