<svg width="97" height="100" viewBox="0 0 97 100" fill="none" xmlns="http://www.w3.org/2000/svg">
<path d="M20.6897 27.5862C17.9616 27.5862 15.2949 26.7773 13.0266 25.2617C10.7584 23.7461 8.99046 21.5919 7.94649 19.0715C6.90252 16.5511 6.62937 13.7778 7.16158 11.1022C7.69379 8.42661 9.00746 5.96891 10.9365 4.03991C12.8655 2.11091 15.3232 0.797247 17.9988 0.265037C20.6744 -0.267173 23.4477 0.00597629 25.9681 1.04994C28.4884 2.09391 30.6426 3.86181 32.1582 6.13007C33.6738 8.39834 34.4828 11.0651 34.4828 13.7931C34.4828 17.4513 33.0296 20.9596 30.4429 23.5463C27.8561 26.133 24.3478 27.5862 20.6897 27.5862ZM20.6897 6.89656C19.3256 6.89656 17.9923 7.30103 16.8581 8.05884C15.724 8.81664 14.8401 9.89373 14.3181 11.1539C13.7961 12.4141 13.6595 13.8008 13.9256 15.1386C14.1917 16.4764 14.8486 17.7052 15.8131 18.6697C16.7776 19.6342 18.0064 20.291 19.3442 20.5571C20.682 20.8233 22.0687 20.6867 23.3289 20.1647C24.589 19.6427 25.6661 18.7588 26.4239 17.6246C27.1817 16.4905 27.5862 15.1571 27.5862 13.7931C27.5862 11.964 26.8596 10.2099 25.5663 8.91651C24.2729 7.62316 22.5187 6.89656 20.6897 6.89656Z" fill="#2D673E"/>
<path d="M75.8621 27.5862C73.1341 27.5862 70.4673 26.7773 68.199 25.2617C65.9308 23.7461 64.1629 21.5919 63.1189 19.0715C62.0749 16.5511 61.8018 13.7778 62.334 11.1022C62.8662 8.42661 64.1799 5.96891 66.1089 4.03991C68.0379 2.11091 70.4956 0.797247 73.1712 0.265037C75.8468 -0.267173 78.6201 0.00597629 81.1405 1.04994C83.6608 2.09391 85.815 3.86181 87.3306 6.13007C88.8462 8.39834 89.6552 11.0651 89.6552 13.7931C89.6552 17.4513 88.202 20.9596 85.6153 23.5463C83.0286 26.133 79.5202 27.5862 75.8621 27.5862ZM75.8621 6.89656C74.4981 6.89656 73.1647 7.30103 72.0306 8.05884C70.8964 8.81664 70.0125 9.89373 69.4905 11.1539C68.9685 12.4141 68.8319 13.8008 69.098 15.1386C69.3641 16.4764 70.021 17.7052 70.9855 18.6697C71.95 19.6342 73.1788 20.291 74.5166 20.5571C75.8544 20.8233 77.2411 20.6867 78.5013 20.1647C79.7615 19.6427 80.8386 18.7588 81.5964 17.6246C82.3542 16.4905 82.7586 15.1571 82.7586 13.7931C82.7586 11.964 82.032 10.2099 80.7387 8.91651C79.4453 7.62316 77.6912 6.89656 75.8621 6.89656Z" fill="#2D673E"/>
<path d="M82.7586 99.9999H68.9655C67.1364 99.9999 65.3823 99.2733 64.0889 97.98C62.7956 96.6866 62.069 94.9325 62.069 93.1034V68.9655H68.9655V93.1034H82.7586V62.0689H89.6552V41.3793C89.6552 40.4647 89.2919 39.5876 88.6452 38.941C87.9985 38.2943 87.1214 37.931 86.2069 37.931H64.069L48.2759 65.5172L32.4828 37.931H10.3448C9.43029 37.931 8.55321 38.2943 7.90653 38.941C7.25985 39.5876 6.89655 40.4647 6.89655 41.3793V62.0689H13.7931V93.1034H27.5862V68.9655H34.4828V93.1034C34.4828 94.9325 33.7562 96.6866 32.4628 97.98C31.1695 99.2733 29.4153 99.9999 27.5862 99.9999H13.7931C11.964 99.9999 10.2099 99.2733 8.9165 97.98C7.62315 96.6866 6.89655 94.9325 6.89655 93.1034V68.9655C5.06747 68.9655 3.31331 68.2389 2.01995 66.9455C0.726599 65.6521 0 63.898 0 62.0689V41.3793C0 38.6356 1.0899 36.0044 3.02993 34.0644C4.96996 32.1243 7.60121 31.0344 10.3448 31.0344H36.4828L48.2759 51.7241L60.069 31.0344H86.2069C88.9505 31.0344 91.5818 32.1243 93.5218 34.0644C95.4618 36.0044 96.5517 38.6356 96.5517 41.3793V62.0689C96.5517 63.898 95.8251 65.6521 94.5318 66.9455C93.2384 68.2389 91.4843 68.9655 89.6552 68.9655V93.1034C89.6552 94.9325 88.9286 96.6866 87.6352 97.98C86.3419 99.2733 84.5877 99.9999 82.7586 99.9999Z" fill="#2D673E"/>
</svg>
