<svg width="60" height="60" viewBox="0 0 60 60" fill="none" xmlns="http://www.w3.org/2000/svg">
<path d="M30 56.25C23.0381 56.25 16.3613 53.4844 11.4384 48.5616C6.51562 43.6387 3.75 36.9619 3.75 30C3.75 23.0381 6.51562 16.3613 11.4384 11.4384C16.3613 6.51562 23.0381 3.75 30 3.75C36.9619 3.75 43.6387 6.51562 48.5616 11.4384C53.4844 16.3613 56.25 23.0381 56.25 30C56.25 36.9619 53.4844 43.6387 48.5616 48.5616C43.6387 53.4844 36.9619 56.25 30 56.25ZM30 60C37.9565 60 45.5871 56.8393 51.2132 51.2132C56.8393 45.5871 60 37.9565 60 30C60 22.0435 56.8393 14.4129 51.2132 8.7868C45.5871 3.16071 37.9565 0 30 0C22.0435 0 14.4129 3.16071 8.7868 8.7868C3.16071 14.4129 0 22.0435 0 30C0 37.9565 3.16071 45.5871 8.7868 51.2132C14.4129 56.8393 22.0435 60 30 60V60Z" fill="#364a5a"/>
<path d="M19.7064 21.6975C19.7012 21.8186 19.7209 21.9395 19.7642 22.0527C19.8075 22.1659 19.8735 22.2691 19.9582 22.3558C20.0428 22.4426 20.1443 22.5111 20.2565 22.5572C20.3686 22.6032 20.4889 22.6259 20.6101 22.6237H23.7039C24.2214 22.6237 24.6339 22.2 24.7014 21.6862C25.0389 19.2262 26.7264 17.4338 29.7339 17.4338C32.3064 17.4338 34.6614 18.72 34.6614 21.8137C34.6614 24.195 33.2589 25.29 31.0426 26.955C28.5189 28.7888 26.5201 30.93 26.6626 34.4063L26.6739 35.22C26.6778 35.466 26.7783 35.7007 26.9537 35.8732C27.1291 36.0458 27.3653 36.1425 27.6114 36.1425H30.6526C30.9013 36.1425 31.1397 36.0437 31.3155 35.8679C31.4913 35.6921 31.5901 35.4536 31.5901 35.205V34.8112C31.5901 32.1187 32.6139 31.335 35.3776 29.2387C37.6614 27.5025 40.0426 25.575 40.0426 21.5288C40.0426 15.8625 35.2576 13.125 30.0189 13.125C25.2676 13.125 20.0626 15.3375 19.7064 21.6975V21.6975ZM25.5451 43.3087C25.5451 45.3075 27.1389 46.785 29.3326 46.785C31.6164 46.785 33.1876 45.3075 33.1876 43.3087C33.1876 41.2387 31.6126 39.7838 29.3289 39.7838C27.1389 39.7838 25.5451 41.2387 25.5451 43.3087Z" fill="#364a5a"/>
</svg>
