<svg width="97" height="100" viewBox="0 0 97 100" fill="none" xmlns="http://www.w3.org/2000/svg">
<path d="M27.5879 99.9999H13.7948C11.9674 99.9945 10.2164 99.2661 8.92427 97.974C7.6321 96.6818 6.90375 94.9308 6.89829 93.1034V68.9655C5.07089 68.96 3.31989 68.2317 2.02772 66.9395C0.735548 65.6473 0.00719656 63.8963 0.00173888 62.0689V41.3793C-0.0235278 40.0138 0.226786 38.6573 0.737717 37.3908C1.24865 36.1243 2.0097 34.9738 2.97539 34.0081C3.94108 33.0424 5.09156 32.2814 6.35807 31.7704C7.62458 31.2595 8.98111 31.0092 10.3466 31.0345H31.0362C32.4017 31.0092 33.7582 31.2595 35.0247 31.7704C36.2912 32.2814 37.4417 33.0424 38.4074 34.0081C39.3731 34.9738 40.1341 36.1243 40.6451 37.3908C41.156 38.6573 41.4063 40.0138 41.381 41.3793V62.0689C41.3756 63.8963 40.6472 65.6473 39.355 66.9395C38.0629 68.2317 36.3119 68.96 34.4845 68.9655V93.1034C34.479 94.9308 33.7507 96.6818 32.4585 97.974C31.1663 99.2661 29.4153 99.9945 27.5879 99.9999ZM10.3466 37.931C9.88652 37.9033 9.42584 37.9736 8.99494 38.1371C8.56404 38.3006 8.17273 38.5537 7.84684 38.8796C7.52095 39.2054 7.2679 39.5968 7.10439 40.0277C6.94088 40.4585 6.87063 40.9192 6.89829 41.3793V62.0689H13.7948V93.1034H27.5879V62.0689H34.4845V41.3793C34.5121 40.9192 34.4419 40.4585 34.2784 40.0277C34.1149 39.5968 33.8618 39.2054 33.5359 38.8796C33.21 38.5537 32.8187 38.3006 32.3878 38.1371C31.9569 37.9736 31.4963 37.9033 31.0362 37.931H10.3466Z" fill="#8b9191"/>
<path d="M20.6913 27.5862C17.9633 27.5862 15.2965 26.7772 13.0283 25.2616C10.76 23.746 8.9921 21.5919 7.94814 19.0715C6.90417 16.5511 6.63102 13.7778 7.16323 11.1022C7.69544 8.4266 9.0091 5.96891 10.9381 4.03991C12.8671 2.11091 15.3248 0.797246 18.0004 0.265037C20.676 -0.267173 23.4493 0.00597629 25.9697 1.04994C28.49 2.09391 30.6442 3.86181 32.1598 6.13007C33.6754 8.39833 34.4844 11.0651 34.4844 13.7931C34.4798 17.4499 33.0252 20.9555 30.4394 23.5413C27.8537 26.127 24.3481 27.5816 20.6913 27.5862ZM20.6913 6.89655C19.3273 6.89655 17.9939 7.30103 16.8598 8.05883C15.7256 8.81664 14.8417 9.89373 14.3197 11.1539C13.7977 12.4141 13.6612 13.8008 13.9273 15.1386C14.1934 16.4764 14.8502 17.7052 15.8147 18.6697C16.7792 19.6342 18.008 20.291 19.3458 20.5571C20.6836 20.8232 22.0703 20.6867 23.3305 20.1647C24.5907 19.6427 25.6678 18.7588 26.4256 17.6246C27.1834 16.4905 27.5878 15.1571 27.5878 13.7931C27.586 11.9646 26.8588 10.2115 25.5659 8.91852C24.2729 7.62557 22.5198 6.89838 20.6913 6.89655Z" fill="#8b9191"/>
<path d="M92.2984 7.7791C89.7052 5.1439 86.2045 3.59686 82.5101 3.45334C78.8157 3.30982 75.2056 4.58061 72.4157 7.00669C69.6258 4.58061 66.0157 3.30982 62.3213 3.45334C58.6268 3.59686 55.1262 5.1439 52.5329 7.7791C49.8068 10.5627 48.28 14.3037 48.28 18.1998C48.28 22.0959 49.8068 25.8369 52.5329 28.6205L72.4088 48.7584L72.4157 48.7515L72.4226 48.7549L92.2984 28.6205C95.0246 25.8369 96.5513 22.0959 96.5513 18.1998C96.5513 14.3037 95.0246 10.5627 92.2984 7.7791ZM87.3881 23.7756L72.4226 38.9377L72.4157 38.9308L72.4088 38.9377L57.4433 23.7756C55.9821 22.2875 55.1635 20.2853 55.1635 18.1998C55.1635 16.1143 55.9821 14.1121 57.4433 12.6239C58.9005 11.2075 60.8525 10.4152 62.8847 10.4152C64.9168 10.4152 66.8688 11.2075 68.326 12.6239L72.3984 16.786L72.4157 16.7688L72.4329 16.786L76.5019 12.6239C77.9592 11.2065 79.912 10.4135 81.945 10.4135C83.978 10.4135 85.9307 11.2065 87.3881 12.6239C88.8492 14.1121 89.6679 16.1143 89.6679 18.1998C89.6679 20.2853 88.8492 22.2875 87.3881 23.7756Z" fill="#8b9191"/>
</svg>
