<svg width="91" height="86" viewBox="0 0 91 86" fill="none" xmlns="http://www.w3.org/2000/svg">
<path d="M90.0833 14.2917C90.0833 6.91766 84.0824 0.916748 76.7083 0.916748H14.2917C6.91759 0.916748 0.916672 6.91766 0.916672 14.2917V26.9133C0.916672 31.6079 2.61976 35.8745 5.37501 39.1559V76.7084C5.37501 81.626 9.37413 85.6251 14.2917 85.6251H76.7083C81.6259 85.6251 85.625 81.626 85.625 76.7084V39.1514C88.3803 35.8745 90.0833 31.6079 90.0833 26.9088V14.2917ZM81.1667 14.2917V26.9133C81.1667 31.9958 77.3815 36.3293 72.736 36.5745L72.25 36.5834C67.3325 36.5834 63.3333 32.5843 63.3333 27.6667V9.83342H76.7083C79.1693 9.83342 81.1667 11.8352 81.1667 14.2917ZM36.5833 9.83342H54.4167V27.6667C54.4167 32.5843 50.4175 36.5834 45.5 36.5834C40.5825 36.5834 36.5833 32.5843 36.5833 27.6667V9.83342ZM9.83334 14.2917C9.83334 11.8352 11.8307 9.83342 14.2917 9.83342H27.6667V27.6667C27.6667 32.5843 23.6675 36.5834 18.75 36.5834L18.264 36.57C13.6185 36.3293 9.83334 31.9958 9.83334 26.9133V14.2917ZM36.5833 76.7084V63.3334H54.4167V76.7084H36.5833ZM63.3333 76.7084V63.3334C63.3333 58.4159 59.3342 54.4167 54.4167 54.4167H36.5833C31.6658 54.4167 27.6667 58.4159 27.6667 63.3334V76.7084H14.2917V44.916C15.4241 45.2148 16.5966 45.4109 17.8004 45.4733C20.4883 45.6192 23.1742 45.1529 25.6556 44.1095C28.1369 43.0661 30.349 41.473 32.125 39.4501C35.393 43.1595 40.1812 45.5001 45.5 45.5001C50.8188 45.5001 55.607 43.1595 58.875 39.4501C60.651 41.473 62.8631 43.0661 65.3445 44.1095C67.8259 45.1529 70.5118 45.6192 73.1996 45.4733C74.4078 45.4109 75.5759 45.2148 76.7083 44.916V76.7084H63.3333Z" fill="#2D673E"/>
</svg>
