<svg width="60" height="44" viewBox="0 0 60 44" fill="none" xmlns="http://www.w3.org/2000/svg">
<path d="M60 21.6564C60 21.5085 60 21.3404 59.9933 21.1454C59.9866 20.6008 59.9732 19.989 59.9598 19.3368C59.9062 17.4609 59.8125 15.5918 59.6652 13.8302C59.4643 11.4031 59.1696 9.37928 58.7679 7.85977C58.3439 6.27403 57.5128 4.8278 56.3576 3.66563C55.2025 2.50346 53.7638 1.66606 52.1853 1.23712C50.2902 0.726138 46.5804 0.410133 41.3571 0.215152C38.8728 0.121023 36.2143 0.0605111 33.5558 0.0268936C32.625 0.0134466 31.7612 0.0067235 30.9844 0H29.0156C28.2388 0.0067235 27.375 0.0134466 26.4442 0.0268936C23.7857 0.0605111 21.1272 0.121023 18.6429 0.215152C13.4196 0.416857 9.70312 0.732861 7.81473 1.23712C6.23572 1.665 4.79645 2.50205 3.64114 3.66439C2.48584 4.82672 1.65509 6.27351 1.23214 7.85977C0.823661 9.37928 0.535714 11.4031 0.334821 13.8302C0.1875 15.5918 0.0937499 17.4609 0.0401785 19.3368C0.0200892 19.989 0.0133928 20.6008 0.00669633 21.1454C0.00669633 21.3404 0 21.5085 0 21.6564V22.0329C0 22.1808 -1.02279e-07 22.3489 0.00669633 22.5439C0.0133928 23.0885 0.0267856 23.7003 0.0401785 24.3525C0.0937499 26.2284 0.1875 28.0975 0.334821 29.8591C0.535714 32.2863 0.830357 34.31 1.23214 35.8295C2.08929 39.0501 4.60714 41.5916 7.81473 42.4522C9.70312 42.9632 13.4196 43.2792 18.6429 43.4742C21.1272 43.5683 23.7857 43.6288 26.4442 43.6624C27.375 43.6759 28.2388 43.6826 29.0156 43.6893H30.9844C31.7612 43.6826 32.625 43.6759 33.5558 43.6624C36.2143 43.6288 38.8728 43.5683 41.3571 43.4742C46.5804 43.2725 50.2969 42.9565 52.1853 42.4522C55.3929 41.5916 57.9107 39.0568 58.7679 35.8295C59.1763 34.31 59.4643 32.2863 59.6652 29.8591C59.8125 28.0975 59.9062 26.2284 59.9598 24.3525C59.9799 23.7003 59.9866 23.0885 59.9933 22.5439C59.9933 22.3489 60 22.1808 60 22.0329V21.6564ZM55.1786 22.006C55.1786 22.1472 55.1786 22.3019 55.1719 22.4834C55.1652 23.0078 55.1518 23.586 55.1384 24.2113C55.0915 25.9998 54.9978 27.7882 54.8571 29.4489C54.6763 31.6139 54.4219 33.3889 54.1071 34.579C53.692 36.1321 52.4732 37.3625 50.933 37.7726C49.5268 38.1492 45.9844 38.4517 41.1696 38.6332C38.7321 38.7274 36.1071 38.7879 33.4888 38.8215C32.5714 38.8349 31.721 38.8417 30.9576 38.8417H29.0424L26.5112 38.8215C23.8929 38.7879 21.2746 38.7274 18.8304 38.6332C14.0156 38.445 10.4665 38.1492 9.06696 37.7726C7.52678 37.3558 6.30804 36.1321 5.89286 34.579C5.57812 33.3889 5.32366 31.6139 5.14286 29.4489C5.00223 27.7882 4.91518 25.9998 4.86161 24.2113C4.84152 23.586 4.83482 23.0011 4.82813 22.4834C4.82813 22.3019 4.82143 22.1405 4.82143 22.006V21.6833C4.82143 21.5421 4.82143 21.3875 4.82813 21.2059C4.83482 20.6815 4.84821 20.1033 4.86161 19.478C4.90848 17.6895 5.00223 15.9011 5.14286 14.2404C5.32366 12.0754 5.57812 10.3004 5.89286 9.11035C6.30804 7.55722 7.52678 6.32682 9.06696 5.91668C10.4732 5.54017 14.0156 5.23761 18.8304 5.05607C21.2679 4.96194 23.8929 4.90143 26.5112 4.86782C27.4286 4.85437 28.279 4.84765 29.0424 4.84765H30.9576L33.4888 4.86782C36.1071 4.90143 38.7254 4.96194 41.1696 5.05607C45.9844 5.24433 49.5335 5.54017 50.933 5.91668C52.4732 6.33354 53.692 7.55722 54.1071 9.11035C54.4219 10.3004 54.6763 12.0754 54.8571 14.2404C54.9978 15.9011 55.0848 17.6895 55.1384 19.478C55.1585 20.1033 55.1652 20.6882 55.1719 21.2059C55.1719 21.3875 55.1786 21.5488 55.1786 21.6833V22.006ZM24.0402 30.8542L39.5759 21.7774L24.0402 12.8352V30.8542Z" fill="#DADDDD"/>
</svg>
